ply
format ascii 1.0
comment Created by Blender 2.82 (sub 7) - www.blender.org, source file: ''
element vertex 188
property float x
property float y
property float z
property float nx
property float ny
property float nz
property uchar red
property uchar green
property uchar blue
property uchar alpha
element face 116
property list uchar uint vertex_indices
end_header
-0.148316 0.123305 -0.018569 -0.907450 0.420161 0.000001 3 145 255 255
-0.159329 0.099519 0.443306 -0.907450 0.420161 0.000001 0 145 255 255
-0.148316 0.123305 0.443306 -0.907450 0.420161 0.000001 0 145 255 255
-0.117466 -0.155350 -0.018569 -0.000001 -0.000000 -1.000000 0 145 255 255
-0.125949 -0.150084 -0.018569 -0.000001 -0.000000 -1.000000 0 145 255 255
-0.035066 -0.155350 -0.018569 -0.000001 -0.000000 -1.000000 6 145 254 255
-0.127432 -0.152834 -0.018569 -0.000001 -0.000000 -1.000000 0 145 255 255
-0.164945 -0.073882 -0.018569 -0.000001 -0.000000 -1.000000 0 145 255 255
-0.164945 0.073882 -0.018569 -0.000001 -0.000000 -1.000000 17 142 250 255
-0.035065 0.152225 -0.018569 0.258818 -0.000000 -0.965926 1 145 255 255
-0.033566 -0.155350 -0.018167 0.258818 -0.000000 -0.965926 7 145 254 255
-0.035066 -0.155350 -0.018569 0.258818 -0.000000 -0.965926 6 145 254 255
-0.159329 0.099519 0.443306 -0.000010 0.000006 1.000000 0 145 255 255
-0.135010 0.145890 0.443306 -0.000010 0.000006 1.000000 0 145 255 255
-0.148316 0.123305 0.443306 -0.000010 0.000006 1.000000 0 145 255 255
-0.148316 0.123305 0.443306 -0.861594 0.507599 0.000001 0 145 255 255
-0.135010 0.145890 0.443306 -0.861594 0.507599 0.000001 0 145 255 255
-0.148316 0.123305 -0.018569 -0.861594 0.507599 0.000001 3 145 255 255
-0.135011 0.145890 -0.018569 -0.861594 0.507599 0.000001 0 145 255 255
-0.035065 0.155350 -0.018569 -0.000001 0.000000 -1.000000 1 145 255 255
-0.125949 0.150084 -0.018569 -0.000001 0.000000 -1.000000 0 145 255 255
-0.117465 0.155350 -0.018569 -0.000001 0.000000 -1.000000 0 145 255 255
-0.127432 -0.152834 -0.018569 -0.244743 -0.969588 0.000000 0 145 255 255
-0.117465 -0.155350 0.443306 -0.244743 -0.969588 0.000000 0 145 255 255
-0.127432 -0.152834 0.443306 -0.244743 -0.969588 0.000000 0 145 255 255
-0.117466 -0.155350 -0.018569 -0.244742 -0.969588 0.000000 0 145 255 255
-0.117465 -0.155350 0.443306 -0.244742 -0.969588 0.000000 0 145 255 255
-0.127432 -0.152834 -0.018569 -0.244742 -0.969588 0.000000 0 145 255 255
-0.159330 -0.099519 -0.018569 -0.000001 -0.000000 -1.000000 0 145 255 255
-0.168288 -0.072369 -0.018569 -0.000001 -0.000000 -1.000000 0 145 255 255
-0.135011 0.145890 -0.018569 -0.000001 0.000000 -1.000000 0 145 255 255
-0.159330 0.099519 -0.018569 -0.000001 0.000000 -1.000000 20 143 249 255
-0.148316 0.123305 -0.018569 -0.000001 0.000000 -1.000000 3 145 255 255
-0.168288 0.072368 -0.018569 -0.000001 0.000000 -1.000000 18 142 250 255
-0.159330 0.099519 -0.018569 -0.907450 0.420161 0.000001 20 143 249 255
-0.033566 -0.155350 -0.018167 0.707106 -0.000000 -0.707108 7 145 254 255
-0.032467 0.152225 -0.017069 0.707106 -0.000000 -0.707108 1 145 255 255
-0.032467 -0.155350 -0.017069 0.707106 -0.000000 -0.707108 7 145 254 255
-0.148316 -0.123305 -0.018569 -0.861593 -0.507599 0.000001 0 145 255 255
-0.135010 -0.145890 0.443306 -0.861593 -0.507599 0.000001 0 145 255 255
-0.148316 -0.123305 0.443306 -0.861593 -0.507599 0.000001 0 145 255 255
-0.159329 0.099519 0.443306 -0.000001 0.000001 1.000000 0 145 255 255
-0.127432 0.152834 0.443306 -0.000001 0.000001 1.000000 0 145 255 255
-0.135010 0.145890 0.443306 -0.000001 0.000001 1.000000 0 145 255 255
-0.117465 0.155350 0.443306 -0.000000 0.000001 1.000000 0 145 255 255
-0.127432 0.152834 0.443306 -0.000000 0.000001 1.000000 0 145 255 255
-0.159329 0.099519 0.443306 -0.000000 0.000001 1.000000 0 145 255 255
-0.032467 0.152225 0.441806 0.965927 -0.000000 0.258816 9 144 254 255
-0.032065 -0.155350 0.440306 0.965927 -0.000000 0.258816 1 145 255 255
-0.032065 0.152225 0.440306 0.965927 -0.000000 0.258816 9 144 254 255
-0.117465 0.155350 0.443306 0.000000 0.000000 1.000000 0 145 255 255
-0.159329 0.099519 0.443306 0.000000 0.000000 1.000000 0 145 255 255
-0.156432 0.098347 0.443306 0.000000 0.000000 1.000000 0 145 255 255
-0.117465 -0.155350 0.443306 -0.000000 -0.000001 1.000000 0 145 255 255
-0.159329 -0.099519 0.443306 -0.000000 -0.000001 1.000000 0 145 255 255
-0.127432 -0.152834 0.443306 -0.000000 -0.000001 1.000000 0 145 255 255
-0.159329 -0.099519 0.443306 -0.000001 -0.000001 1.000000 0 145 255 255
-0.135010 -0.145890 0.443306 -0.000001 -0.000001 1.000000 0 145 255 255
-0.127432 -0.152834 0.443306 -0.000001 -0.000001 1.000000 0 145 255 255
-0.135010 -0.145890 0.443306 -0.000010 -0.000006 1.000000 0 145 255 255
-0.159329 -0.099519 0.443306 -0.000010 -0.000006 1.000000 0 145 255 255
-0.148316 -0.123305 0.443306 -0.000010 -0.000006 1.000000 0 145 255 255
-0.148316 -0.123305 0.443306 -0.907450 -0.420161 0.000001 0 145 255 255
-0.159329 -0.099519 0.443306 -0.907450 -0.420161 0.000001 0 145 255 255
-0.148316 -0.123305 -0.018569 -0.907450 -0.420161 0.000001 0 145 255 255
-0.159330 -0.099519 -0.018569 -0.907450 -0.420161 0.000001 0 145 255 255
-0.167944 -0.074762 -0.018569 -0.000001 -0.000000 -1.000000 0 145 255 255
-0.167943 -0.074762 0.443306 -0.944460 -0.328628 0.000001 0 145 255 255
-0.167944 -0.074762 -0.018569 -0.944460 -0.328628 0.000001 0 145 255 255
-0.159329 -0.099519 0.443306 -0.944460 -0.328628 0.000001 0 145 255 255
-0.159330 -0.099519 -0.018569 -0.944460 -0.328628 0.000001 0 145 255 255
-0.145549 -0.121854 -0.018569 -0.000001 -0.000000 -1.000000 0 145 255 255
-0.159330 0.099519 -0.018569 -0.944460 0.328627 0.000001 20 143 249 255
-0.167944 0.074762 -0.018569 -0.944460 0.328627 0.000001 19 142 249 255
-0.159329 0.099519 0.443306 -0.944460 0.328627 0.000001 0 145 255 255
-0.167944 0.074762 -0.018569 -0.000001 0.000000 -1.000000 19 142 249 255
-0.145549 0.121854 -0.018569 -0.000001 0.000000 -1.000000 3 145 255 255
-0.032467 0.152225 -0.017069 0.707103 -0.000000 -0.707110 1 145 255 255
-0.033566 -0.155350 -0.018167 0.707103 -0.000000 -0.707110 7 145 254 255
-0.033565 0.152225 -0.018167 0.707103 -0.000000 -0.707110 1 145 255 255
-0.033566 -0.155350 -0.018167 0.258820 -0.000000 -0.965926 7 145 254 255
-0.035065 0.152225 -0.018569 0.258820 -0.000000 -0.965926 1 145 255 255
-0.033565 0.152225 -0.018167 0.258820 -0.000000 -0.965926 1 145 255 255
-0.117465 0.155350 0.443306 -0.244741 0.969589 0.000000 0 145 255 255
-0.117465 0.155350 -0.018569 -0.244741 0.969589 0.000000 0 145 255 255
-0.127432 0.152834 -0.018569 -0.244741 0.969589 0.000000 0 145 255 255
-0.127432 0.152834 -0.018569 -0.244741 0.969588 0.000000 0 145 255 255
-0.127432 0.152834 0.443306 -0.244741 0.969588 0.000000 0 145 255 255
-0.117465 0.155350 0.443306 -0.244741 0.969588 0.000000 0 145 255 255
-0.127432 0.152834 -0.018569 -0.000001 0.000000 -1.000000 0 145 255 255
-0.117465 -0.155350 0.443306 0.000001 -0.000000 1.000000 0 145 255 255
-0.035065 -0.155350 0.443306 0.000001 -0.000000 1.000000 0 145 255 255
-0.035065 0.152225 0.443306 0.000001 -0.000000 1.000000 8 144 253 255
-0.159329 -0.099519 0.443306 0.000000 -0.000000 1.000000 0 145 255 255
-0.117465 -0.155350 0.443306 0.000000 -0.000000 1.000000 0 145 255 255
-0.156432 -0.098347 0.443306 0.000000 -0.000000 1.000000 0 145 255 255
-0.117465 0.155350 0.443306 0.000001 -0.000000 1.000000 0 145 255 255
-0.156432 -0.098347 0.443306 0.000001 -0.000000 1.000000 0 145 255 255
-0.156432 0.098347 0.443306 0.000001 -0.000000 1.000000 0 145 255 255
-0.135011 -0.145890 -0.018569 -0.000001 -0.000000 -1.000000 0 145 255 255
-0.135011 -0.145890 -0.018569 -0.861593 -0.507599 0.000001 0 145 255 255
-0.148316 -0.123305 -0.018569 -0.000001 -0.000000 -1.000000 0 145 255 255
-0.127432 -0.152834 0.443306 -0.675587 -0.737281 0.000001 0 145 255 255
-0.135011 -0.145890 -0.018569 -0.675587 -0.737281 0.000001 0 145 255 255
-0.127432 -0.152834 -0.018569 -0.675587 -0.737281 0.000001 0 145 255 255
-0.135010 -0.145890 0.443306 -0.675587 -0.737281 0.000001 0 145 255 255
-0.167943 0.074762 0.443306 -0.944460 0.328627 0.000001 0 145 255 255
-0.032065 0.152225 -0.015569 0.965926 -0.000000 -0.258818 45 132 224 255
-0.032066 -0.155350 -0.015569 0.965926 -0.000000 -0.258818 6 145 254 255
-0.032467 0.152225 -0.017069 0.965926 -0.000000 -0.258818 1 145 255 255
-0.032467 0.152225 -0.017069 0.965925 -0.000000 -0.258822 1 145 255 255
-0.032066 -0.155350 -0.015569 0.965925 -0.000000 -0.258822 6 145 254 255
-0.032467 -0.155350 -0.017069 0.965925 -0.000000 -0.258822 7 145 254 255
-0.035065 0.152225 0.443306 0.258814 -0.000000 0.965927 8 144 253 255
-0.033565 -0.155350 0.442904 0.258814 -0.000000 0.965927 0 145 255 255
-0.033565 0.152225 0.442904 0.258814 -0.000000 0.965927 9 144 253 255
-0.035065 -0.155350 0.443306 0.258813 -0.000000 0.965927 0 145 255 255
-0.033565 -0.155350 0.442904 0.258813 -0.000000 0.965927 0 145 255 255
-0.035065 0.152225 0.443306 0.258813 -0.000000 0.965927 8 144 253 255
-0.033565 -0.155350 0.442904 0.707102 -0.000000 0.707112 0 145 255 255
-0.032467 0.152225 0.441806 0.707102 -0.000000 0.707112 9 144 254 255
-0.033565 0.152225 0.442904 0.707102 -0.000000 0.707112 9 144 253 255
-0.032065 -0.155350 0.440306 0.965925 -0.000000 0.258820 1 145 255 255
-0.032467 0.152225 0.441806 0.965925 -0.000000 0.258820 9 144 254 255
-0.032467 -0.155350 0.441806 0.965925 -0.000000 0.258820 1 145 255 255
-0.033565 -0.155350 0.442904 0.707104 -0.000000 0.707109 0 145 255 255
-0.032467 -0.155350 0.441806 0.707104 -0.000000 0.707109 1 145 255 255
-0.032467 0.152225 0.441806 0.707104 -0.000000 0.707109 9 144 254 255
-0.035065 0.152225 -0.018569 -0.000001 0.000000 -1.000000 1 145 255 255
-0.168287 0.072368 0.443306 -1.000000 0.000000 0.000001 0 145 255 255
-0.168288 0.072368 -0.018569 -1.000000 0.000000 0.000001 18 142 250 255
-0.168287 -0.072369 0.443306 -1.000000 0.000000 0.000001 0 145 255 255
-0.168288 -0.072369 -0.018569 -1.000000 0.000000 0.000001 0 145 255 255
-0.035065 0.155350 0.443306 0.000001 0.000000 1.000000 10 144 253 255
-0.033565 0.155350 0.442904 0.258814 0.000000 0.965927 11 144 253 255
-0.035065 0.155350 0.443306 0.258814 0.000000 0.965927 10 144 253 255
-0.033565 0.155350 0.442904 0.707102 0.000000 0.707112 11 144 253 255
-0.032467 0.155350 0.441806 0.707102 0.000000 0.707112 11 144 253 255
-0.035065 0.155350 -0.018569 0.000000 1.000000 0.000000 1 145 255 255
-0.117465 0.155350 -0.018569 0.000000 1.000000 0.000000 0 145 255 255
-0.032065 0.155350 0.440306 0.000000 1.000000 0.000000 10 144 254 255
-0.117465 0.155350 0.443306 0.000000 1.000000 -0.000000 0 145 255 255
-0.032467 0.155350 -0.017069 0.000000 1.000000 -0.000000 1 145 255 255
-0.032065 0.155350 -0.015569 0.000000 1.000000 -0.000000 1 145 255 255
-0.033565 0.155350 -0.018167 0.000000 1.000000 -0.000000 1 145 255 255
-0.035065 0.155350 0.443306 0.000000 1.000000 0.000000 10 144 253 255
-0.033565 0.155350 0.442904 0.000000 1.000000 0.000000 11 144 253 255
-0.032467 0.155350 0.441806 0.000000 1.000000 0.000000 11 144 253 255
-0.032065 0.155350 0.440306 0.965927 0.000000 0.258816 10 144 254 255
-0.032467 0.155350 0.441806 0.965927 0.000000 0.258816 11 144 253 255
-0.168287 -0.072369 0.443306 -0.989833 -0.142236 0.000001 0 145 255 255
-0.167944 -0.074762 -0.018569 -0.989833 -0.142236 0.000001 0 145 255 255
-0.167943 -0.074762 0.443306 -0.989833 -0.142236 0.000001 0 145 255 255
-0.168288 -0.072369 -0.018569 -0.989833 -0.142236 0.000001 0 145 255 255
-0.032467 0.155350 -0.017069 0.707103 0.000000 -0.707110 1 145 255 255
-0.033565 0.155350 -0.018167 0.707103 0.000000 -0.707110 1 145 255 255
-0.033565 0.155350 -0.018167 0.258820 0.000000 -0.965926 1 145 255 255
-0.035065 0.155350 -0.018569 0.258820 0.000000 -0.965926 1 145 255 255
-0.032065 0.155350 -0.015569 0.965926 0.000000 -0.258818 1 145 255 255
-0.032467 0.155350 -0.017069 0.965926 0.000000 -0.258818 1 145 255 255
-0.032065 0.155350 0.440306 1.000000 0.000000 -0.000001 10 144 254 255
-0.032065 0.152225 -0.015569 1.000000 0.000000 -0.000001 45 132 224 255
-0.032065 0.155350 -0.015569 1.000000 0.000000 -0.000001 1 145 255 255
-0.032065 0.152225 0.440306 1.000000 0.000000 -0.000001 9 144 254 255
-0.135010 0.145890 0.443306 -0.675587 0.737280 0.000001 0 145 255 255
-0.127432 0.152834 -0.018569 -0.675587 0.737280 0.000001 0 145 255 255
-0.135011 0.145890 -0.018569 -0.675587 0.737280 0.000001 0 145 255 255
-0.127432 0.152834 0.443306 -0.675587 0.737280 0.000001 0 145 255 255
-0.168287 -0.072369 0.443306 -0.000000 0.000000 1.000000 0 145 255 255
-0.167943 0.074762 0.443306 -0.000000 0.000000 1.000000 0 145 255 255
-0.168287 0.072368 0.443306 -0.000000 0.000000 1.000000 0 145 255 255
-0.167943 -0.074762 0.443306 -0.000000 0.000000 1.000000 0 145 255 255
-0.168288 0.072368 -0.018569 -0.989833 0.142235 0.000001 18 142 250 255
-0.168287 0.072368 0.443306 -0.989833 0.142235 0.000001 0 145 255 255
-0.167943 0.074762 0.443306 -0.989833 0.142235 0.000001 0 145 255 255
-0.167944 0.074762 -0.018569 -0.989833 0.142235 0.000001 19 142 249 255
-0.032066 -0.155350 -0.015569 1.000000 -0.000000 -0.000001 6 145 254 255
-0.032065 -0.155350 0.440306 1.000000 -0.000000 -0.000001 1 145 255 255
-0.033566 -0.155350 -0.018167 0.000000 -1.000000 0.000000 7 145 254 255
-0.032467 -0.155350 -0.017069 0.000000 -1.000000 0.000000 7 145 254 255
-0.032467 -0.155350 0.441806 0.000000 -1.000000 0.000000 1 145 255 255
-0.117466 -0.155350 -0.018569 -0.000000 -1.000000 0.000000 0 145 255 255
-0.035066 -0.155350 -0.018569 -0.000000 -1.000000 0.000000 6 145 254 255
-0.117465 -0.155350 0.443306 -0.000000 -1.000000 0.000000 0 145 255 255
-0.032066 -0.155350 -0.015569 0.000000 -1.000000 0.000000 6 145 254 255
-0.035065 -0.155350 0.443306 0.000000 -1.000000 0.000000 0 145 255 255
-0.032065 -0.155350 0.440306 -0.000000 -1.000000 0.000000 1 145 255 255
-0.033565 -0.155350 0.442904 0.000000 -1.000000 0.000000 0 145 255 255
3 0 1 2
3 3 4 5
3 6 4 3
3 7 8 5
3 9 10 11
3 12 13 14
3 15 16 17
3 16 18 17
3 19 20 21
3 22 23 24
3 25 26 27
3 7 28 29
3 30 31 32
3 33 31 8
3 0 34 1
3 35 36 37
3 38 39 40
3 41 42 43
3 44 45 46
3 47 48 49
3 50 51 52
3 53 54 55
3 56 57 58
3 59 60 61
3 62 63 64
3 64 63 65
3 28 66 29
3 67 68 69
3 69 68 70
3 71 28 7
3 71 7 5
3 4 71 5
3 72 73 74
3 31 33 75
3 20 76 30
3 76 31 30
3 31 76 8
3 8 76 19
3 20 19 76
3 77 78 79
3 80 81 82
3 83 84 85
3 86 87 88
3 20 89 21
3 20 30 89
3 90 91 92
3 93 94 95
3 96 97 90
3 98 97 96
3 4 6 99
3 71 4 99
3 39 38 100
3 28 99 101
3 71 99 28
3 102 103 104
3 105 103 102
3 73 106 74
3 107 108 109
3 110 111 112
3 113 114 115
3 116 117 118
3 119 120 121
3 122 123 124
3 125 126 127
3 8 19 128
3 8 128 5
3 129 130 131
3 131 130 132
3 7 29 33
3 33 8 7
3 96 92 133
3 90 92 96
3 113 134 135
3 134 113 115
3 136 120 137
3 136 121 120
3 138 139 140
3 141 140 139
3 142 140 143
3 138 140 144
3 142 144 140
3 140 141 145
3 146 147 140
3 146 140 145
3 47 148 149
3 47 49 148
3 150 151 152
3 150 153 151
3 154 79 155
3 77 79 154
3 156 82 157
3 157 82 81
3 158 107 159
3 159 107 109
3 160 161 162
3 161 160 163
3 164 165 166
3 167 165 164
3 168 169 170
3 95 169 93
3 171 169 168
3 52 51 169
3 93 169 171
3 169 95 52
3 172 173 174
3 175 172 174
3 163 176 161
3 177 176 163
3 178 179 180
3 181 182 180
3 178 180 182
3 183 181 180
3 184 180 179
3 185 183 180
3 180 184 186
3 187 185 180
