ply
format ascii 1.0
comment Created by Blender 2.82 (sub 7) - www.blender.org, source file: 'elbow_flex_link_collision.blend'
element vertex 210
property float x
property float y
property float z
property float nx
property float ny
property float nz
property uchar red
property uchar green
property uchar blue
property uchar alpha
element face 70
property list uchar uint vertex_indices
end_header
-0.029000 0.115931 0.013022 -0.001704 0.714916 0.699208 127 127 127 255
0.029418 0.116572 0.012509 -0.001704 0.714916 0.699208 127 127 127 255
-0.029000 0.117061 0.011866 -0.001704 0.714916 0.699208 127 127 127 255
-0.029000 0.117022 -0.011931 -0.001687 0.699210 -0.714914 127 127 127 255
0.029418 0.116572 -0.012509 -0.001687 0.699210 -0.714914 127 127 127 255
-0.029000 0.115866 -0.013061 -0.001687 0.699210 -0.714914 127 127 127 255
-0.029000 0.104134 0.013061 -0.001888 -0.708604 0.705604 127 127 127 255
-0.029000 0.102938 0.011861 -0.001888 -0.708604 0.705604 127 127 127 255
0.029418 0.103428 0.012509 -0.001888 -0.708604 0.705604 127 127 127 255
-0.029000 0.102938 0.011861 0.001786 -0.868703 0.495331 127 127 127 255
0.029542 0.102964 0.011695 0.001786 -0.868703 0.495331 127 127 127 255
0.029418 0.103428 0.012509 0.001786 -0.868703 0.495331 127 127 127 255
0.030780 0.115929 0.011691 0.732976 0.473949 0.487975 127 127 127 255
0.030312 0.116575 0.011767 0.732976 0.473949 0.487975 127 127 127 255
0.030366 0.115702 0.012535 0.732976 0.473949 0.487975 127 127 127 255
0.029418 0.103428 -0.012509 -0.001570 -0.708165 -0.706046 127 127 127 255
-0.029000 0.102978 -0.011928 -0.001570 -0.708165 -0.706046 127 127 127 255
-0.029000 0.104069 -0.013022 -0.001570 -0.708165 -0.706046 127 127 127 255
0.030366 0.115702 0.012535 0.851708 0.216693 0.477114 127 127 127 255
0.030924 0.115197 0.011767 0.851708 0.216693 0.477114 127 127 127 255
0.030780 0.115929 0.011691 0.851708 0.216693 0.477114 127 127 127 255
-0.029000 0.104134 0.013061 0.001700 -0.525301 0.850914 127 127 127 255
0.029418 0.103428 0.012509 0.001700 -0.525301 0.850914 127 127 127 255
0.029559 0.104248 0.013015 0.001700 -0.525301 0.850914 127 127 127 255
0.029418 0.116572 0.012509 0.001700 0.864076 0.503359 127 127 127 255
0.029596 0.117033 0.011717 0.001700 0.864076 0.503359 127 127 127 255
-0.029000 0.117061 0.011866 0.001700 0.864076 0.503359 127 127 127 255
0.029501 0.104103 -0.012952 0.001319 -0.548761 -0.835979 127 127 127 255
0.029418 0.103428 -0.012509 0.001319 -0.548761 -0.835979 127 127 127 255
-0.029000 0.104069 -0.013022 0.001319 -0.548761 -0.835979 127 127 127 255
0.029576 0.104925 -0.013091 0.001270 -0.166307 -0.986073 127 127 127 255
0.029501 0.104103 -0.012952 0.001270 -0.166307 -0.986073 127 127 127 255
-0.029000 0.104069 -0.013022 0.001270 -0.166307 -0.986073 127 127 127 255
0.029549 0.102953 -0.011664 0.001832 -0.871433 -0.490511 127 127 127 255
-0.029000 0.102978 -0.011928 0.001832 -0.871433 -0.490511 127 127 127 255
0.029418 0.103428 -0.012509 0.001832 -0.871433 -0.490511 127 127 127 255
0.029418 0.116572 -0.012509 0.001629 0.862228 -0.506517 127 127 127 255
-0.029000 0.117022 -0.011931 0.001629 0.862228 -0.506517 127 127 127 255
0.029569 0.117045 -0.011704 0.001629 0.862228 -0.506517 127 127 127 255
0.029418 0.116572 -0.012509 0.001575 0.532235 -0.846595 127 127 127 255
0.029519 0.115767 -0.013015 0.001575 0.532235 -0.846595 127 127 127 255
-0.029000 0.115866 -0.013061 0.001575 0.532235 -0.846595 127 127 127 255
0.030780 0.104071 0.011691 0.847680 -0.209243 0.487499 127 127 127 255
0.030941 0.104857 0.011750 0.847680 -0.209243 0.487499 127 127 127 255
0.030348 0.104241 0.012515 0.847680 -0.209243 0.487499 127 127 127 255
0.029418 0.103428 -0.012509 0.510067 -0.588648 -0.627157 127 127 127 255
0.030348 0.104241 -0.012515 0.510067 -0.588648 -0.627157 127 127 127 255
0.030281 0.103414 -0.011794 0.510067 -0.588648 -0.627157 127 127 127 255
0.030281 0.103414 -0.011794 0.737299 -0.477308 -0.478087 127 127 127 255
0.030348 0.104241 -0.012515 0.737299 -0.477308 -0.478087 127 127 127 255
0.030800 0.104085 -0.011663 0.737299 -0.477308 -0.478087 127 127 127 255
0.030348 0.104241 0.012515 0.732202 -0.480192 0.483007 127 127 127 255
0.030308 0.103412 0.011753 0.732202 -0.480192 0.483007 127 127 127 255
0.030780 0.104071 0.011691 0.732202 -0.480192 0.483007 127 127 127 255
0.029490 0.115740 0.013035 0.001558 0.534407 0.845226 127 127 127 255
0.029418 0.116572 0.012509 0.001558 0.534407 0.845226 127 127 127 255
-0.029000 0.115931 0.013022 0.001558 0.534407 0.845226 127 127 127 255
0.030281 0.103414 -0.011794 0.398440 -0.771605 -0.495854 127 127 127 255
0.029549 0.102953 -0.011664 0.398440 -0.771605 -0.495854 127 127 127 255
0.029418 0.103428 -0.012509 0.398440 -0.771605 -0.495854 127 127 127 255
0.029418 0.103428 -0.012509 0.455408 -0.526812 -0.717685 127 127 127 255
0.029501 0.104103 -0.012952 0.455408 -0.526812 -0.717685 127 127 127 255
0.030348 0.104241 -0.012515 0.455408 -0.526812 -0.717685 127 127 127 255
0.030308 0.103412 0.011753 0.409485 -0.764373 0.498053 127 127 127 255
0.029418 0.103428 0.012509 0.409485 -0.764373 0.498053 127 127 127 255
0.029542 0.102964 0.011695 0.409485 -0.764373 0.498053 127 127 127 255
0.029559 0.104248 0.013015 0.452253 -0.523242 0.722278 127 127 127 255
0.029418 0.103428 0.012509 0.452253 -0.523242 0.722278 127 127 127 255
0.030348 0.104241 0.012515 0.452253 -0.523242 0.722278 127 127 127 255
0.030308 0.103412 0.011753 0.514737 -0.593927 0.618301 127 127 127 255
0.030348 0.104241 0.012515 0.514737 -0.593927 0.618301 127 127 127 255
0.029418 0.103428 0.012509 0.514737 -0.593927 0.618301 127 127 127 255
0.029596 0.117033 0.011717 0.432050 0.733859 0.524198 127 127 127 255
0.029418 0.116572 0.012509 0.432050 0.733859 0.524198 127 127 127 255
0.030312 0.116575 0.011767 0.432050 0.733859 0.524198 127 127 127 255
0.030366 0.115702 0.012535 0.517623 0.582561 0.626649 127 127 127 255
0.030312 0.116575 0.011767 0.517623 0.582561 0.626649 127 127 127 255
0.029418 0.116572 0.012509 0.517623 0.582561 0.626649 127 127 127 255
0.029490 0.115740 0.013035 0.444218 0.505915 0.739406 127 127 127 255
0.030366 0.115702 0.012535 0.444218 0.505915 0.739406 127 127 127 255
0.029418 0.116572 0.012509 0.444218 0.505915 0.739406 127 127 127 255
0.029576 0.104925 -0.013091 0.473810 -0.188523 -0.860211 127 127 127 255
0.030348 0.104241 -0.012515 0.473810 -0.188523 -0.860211 127 127 127 255
0.029501 0.104103 -0.012952 0.473810 -0.188523 -0.860211 127 127 127 255
0.030914 0.104856 -0.011797 0.847371 -0.210297 -0.487584 127 127 127 255
0.030800 0.104085 -0.011663 0.847371 -0.210297 -0.487584 127 127 127 255
0.030348 0.104241 -0.012515 0.847371 -0.210297 -0.487584 127 127 127 255
0.029569 0.117045 -0.011704 0.416769 0.747578 -0.517136 127 127 127 255
0.030277 0.116600 -0.011776 0.416769 0.747578 -0.517136 127 127 127 255
0.029418 0.116572 -0.012509 0.416769 0.747578 -0.517136 127 127 127 255
0.030800 0.115915 -0.011663 0.732908 0.479746 -0.482380 127 127 127 255
0.030366 0.115702 -0.012535 0.732908 0.479746 -0.482380 127 127 127 255
0.030277 0.116600 -0.011776 0.732908 0.479746 -0.482380 127 127 127 255
0.030366 0.115702 -0.012535 0.452554 0.514666 -0.728227 127 127 127 255
0.029519 0.115767 -0.013015 0.452554 0.514666 -0.728227 127 127 127 255
0.029418 0.116572 -0.012509 0.452554 0.514666 -0.728227 127 127 127 255
0.030277 0.116600 -0.011776 0.516798 0.581703 -0.628125 127 127 127 255
0.030366 0.115702 -0.012535 0.516798 0.581703 -0.628125 127 127 127 255
0.029418 0.116572 -0.012509 0.516798 0.581703 -0.628125 127 127 127 255
0.030934 0.115104 -0.011766 0.856059 0.201567 -0.475955 127 127 127 255
0.030366 0.115702 -0.012535 0.856059 0.201567 -0.475955 127 127 127 255
0.030800 0.115915 -0.011663 0.856059 0.201567 -0.475955 127 127 127 255
-0.029000 0.102978 -0.011928 -0.000422 -0.999999 -0.001667 127 127 127 255
0.029549 0.102953 -0.011664 -0.000422 -0.999999 -0.001667 127 127 127 255
-0.029000 0.102938 0.011861 -0.000422 -0.999999 -0.001667 127 127 127 255
-0.029000 0.102938 0.011861 0.000444 -1.000000 0.000488 127 127 127 255
0.029549 0.102953 -0.011664 0.000444 -1.000000 0.000488 127 127 127 255
0.029542 0.102964 0.011695 0.000444 -1.000000 0.000488 127 127 127 255
-0.029000 0.117061 0.011866 -0.000388 0.999998 -0.001665 127 127 127 255
0.029569 0.117045 -0.011704 -0.000388 0.999998 -0.001665 127 127 127 255
-0.029000 0.117022 -0.011931 -0.000388 0.999998 -0.001665 127 127 127 255
0.029596 0.117033 0.011717 0.000480 1.000000 0.000492 127 127 127 255
0.029569 0.117045 -0.011704 0.000480 1.000000 0.000492 127 127 127 255
-0.029000 0.117061 0.011866 0.000480 1.000000 0.000492 127 127 127 255
-0.029000 0.104134 0.013061 -0.000213 0.003358 0.999994 127 127 127 255
0.029490 0.115740 0.013035 -0.000213 0.003358 0.999994 127 127 127 255
-0.029000 0.115931 0.013022 -0.000213 0.003358 0.999994 127 127 127 255
0.029559 0.104248 0.013015 0.000791 -0.001705 0.999998 127 127 127 255
0.029490 0.115740 0.013035 0.000791 -0.001705 0.999998 127 127 127 255
-0.029000 0.104134 0.013061 0.000791 -0.001705 0.999998 127 127 127 255
0.030348 0.104241 0.012515 0.534659 -0.002226 0.845065 127 127 127 255
0.030366 0.115702 0.012535 0.534659 -0.002226 0.845065 127 127 127 255
0.029559 0.104248 0.013015 0.534659 -0.002226 0.845065 127 127 127 255
0.029490 0.115740 0.013035 0.495963 0.001477 0.868343 127 127 127 255
0.029559 0.104248 0.013015 0.495963 0.001477 0.868343 127 127 127 255
0.030366 0.115702 0.012535 0.495963 0.001477 0.868343 127 127 127 255
-0.029000 0.115931 0.013022 -1.000000 0.000003 -0.000001 127 127 127 255
-0.029000 0.117061 0.011866 -1.000000 0.000003 -0.000001 127 127 127 255
-0.029000 0.102978 -0.011928 -1.000000 0.000003 -0.000001 127 127 127 255
-0.029000 0.117022 -0.011931 -1.000000 0.000001 0.000000 127 127 127 255
-0.029000 0.102978 -0.011928 -1.000000 0.000001 0.000000 127 127 127 255
-0.029000 0.117061 0.011866 -1.000000 0.000001 0.000000 127 127 127 255
-0.029000 0.102978 -0.011928 -1.000000 0.000001 0.000001 127 127 127 255
-0.029000 0.102938 0.011861 -1.000000 0.000001 0.000001 127 127 127 255
-0.029000 0.104134 0.013061 -1.000000 0.000001 0.000001 127 127 127 255
-0.029000 0.104134 0.013061 -1.000000 -0.000000 0.000001 127 127 127 255
-0.029000 0.115931 0.013022 -1.000000 -0.000000 0.000001 127 127 127 255
-0.029000 0.102978 -0.011928 -1.000000 -0.000000 0.000001 127 127 127 255
-0.029000 0.115866 -0.013061 -1.000000 -0.000000 -0.000019 127 127 127 255
-0.029000 0.104069 -0.013022 -1.000000 -0.000000 -0.000019 127 127 127 255
-0.029000 0.102978 -0.011928 -1.000000 -0.000000 -0.000019 127 127 127 255
-0.029000 0.115866 -0.013061 -1.000000 0.000001 -0.000004 127 127 127 255
-0.029000 0.102978 -0.011928 -1.000000 0.000001 -0.000004 127 127 127 255
-0.029000 0.117022 -0.011931 -1.000000 0.000001 -0.000004 127 127 127 255
0.030941 0.104857 0.011750 0.999999 0.001609 0.000401 127 127 127 255
0.030934 0.115104 -0.011766 0.999999 0.001609 0.000401 127 127 127 255
0.030924 0.115197 0.011767 0.999999 0.001609 0.000401 127 127 127 255
0.030914 0.104856 -0.011797 0.999998 -0.001866 -0.001113 127 127 127 255
0.030934 0.115104 -0.011766 0.999998 -0.001866 -0.001113 127 127 127 255
0.030941 0.104857 0.011750 0.999998 -0.001866 -0.001113 127 127 127 255
-0.029000 0.115866 -0.013061 -0.001128 -0.003358 -0.999994 127 127 127 255
0.029576 0.104925 -0.013091 -0.001128 -0.003358 -0.999994 127 127 127 255
-0.029000 0.104069 -0.013022 -0.001128 -0.003358 -0.999994 127 127 127 255
0.029519 0.115767 -0.013015 0.000804 0.006987 -0.999975 127 127 127 255
0.029576 0.104925 -0.013091 0.000804 0.006987 -0.999975 127 127 127 255
-0.029000 0.115866 -0.013061 0.000804 0.006987 -0.999975 127 127 127 255
0.030800 0.104085 -0.011663 0.989141 -0.146968 -0.001093 127 127 127 255
0.030914 0.104856 -0.011797 0.989141 -0.146968 -0.001093 127 127 127 255
0.030941 0.104857 0.011750 0.989141 -0.146968 -0.001093 127 127 127 255
0.030780 0.104071 0.011691 0.979819 -0.199886 0.000708 127 127 127 255
0.030800 0.104085 -0.011663 0.979819 -0.199886 0.000708 127 127 127 255
0.030941 0.104857 0.011750 0.979819 -0.199886 0.000708 127 127 127 255
0.030348 0.104241 0.012515 0.791768 -0.002216 0.610817 127 127 127 255
0.030941 0.104857 0.011750 0.791768 -0.002216 0.610817 127 127 127 255
0.030366 0.115702 0.012535 0.791768 -0.002216 0.610817 127 127 127 255
0.030366 0.115702 0.012535 0.808714 0.000320 0.588202 127 127 127 255
0.030941 0.104857 0.011750 0.808714 0.000320 0.588202 127 127 127 255
0.030924 0.115197 0.011767 0.808714 0.000320 0.588202 127 127 127 255
0.030934 0.115104 -0.011766 0.986710 0.162490 -0.000241 127 127 127 255
0.030800 0.115915 -0.011663 0.986710 0.162490 -0.000241 127 127 127 255
0.030924 0.115197 0.011767 0.986710 0.162490 -0.000241 127 127 127 255
0.030924 0.115197 0.011767 0.981252 0.192727 0.000713 127 127 127 255
0.030800 0.115915 -0.011663 0.981252 0.192727 0.000713 127 127 127 255
0.030780 0.115929 0.011691 0.981252 0.192727 0.000713 127 127 127 255
0.030780 0.104071 0.011691 0.812586 -0.582842 0.000328 127 127 127 255
0.030308 0.103412 0.011753 0.812586 -0.582842 0.000328 127 127 127 255
0.030800 0.104085 -0.011663 0.812586 -0.582842 0.000328 127 127 127 255
0.030281 0.103414 -0.011794 0.790818 -0.612051 -0.000970 127 127 127 255
0.030800 0.104085 -0.011663 0.790818 -0.612051 -0.000970 127 127 127 255
0.030308 0.103412 0.011753 0.790818 -0.612051 -0.000970 127 127 127 255
0.030308 0.103412 0.011753 0.504601 -0.863352 0.000570 127 127 127 255
0.029542 0.102964 0.011695 0.504601 -0.863352 0.000570 127 127 127 255
0.029549 0.102953 -0.011664 0.504601 -0.863352 0.000570 127 127 127 255
0.030281 0.103414 -0.011794 0.533197 -0.845990 -0.000698 127 127 127 255
0.030308 0.103412 0.011753 0.533197 -0.845990 -0.000698 127 127 127 255
0.029549 0.102953 -0.011664 0.533197 -0.845990 -0.000698 127 127 127 255
0.029596 0.117033 0.011717 0.531795 0.846873 -0.000190 127 127 127 255
0.030277 0.116600 -0.011776 0.531795 0.846873 -0.000190 127 127 127 255
0.029569 0.117045 -0.011704 0.531795 0.846873 -0.000190 127 127 127 255
0.029596 0.117033 0.011717 0.538593 0.842566 0.000086 127 127 127 255
0.030312 0.116575 0.011767 0.538593 0.842566 0.000086 127 127 127 255
0.030277 0.116600 -0.011776 0.538593 0.842566 0.000086 127 127 127 255
0.030277 0.116600 -0.011776 0.795112 0.606462 -0.000534 127 127 127 255
0.030312 0.116575 0.011767 0.795112 0.606462 -0.000534 127 127 127 255
0.030800 0.115915 -0.011663 0.795112 0.606462 -0.000534 127 127 127 255
0.030780 0.115929 0.011691 0.809696 0.586850 0.000323 127 127 127 255
0.030800 0.115915 -0.011663 0.809696 0.586850 0.000323 127 127 127 255
0.030312 0.116575 0.011767 0.809696 0.586850 0.000323 127 127 127 255
0.030934 0.115104 -0.011766 0.804202 0.000257 -0.594355 127 127 127 255
0.030914 0.104856 -0.011797 0.804202 0.000257 -0.594355 127 127 127 255
0.030366 0.115702 -0.012535 0.804202 0.000257 -0.594355 127 127 127 255
0.030348 0.104241 -0.012515 0.786503 -0.002219 -0.617582 127 127 127 255
0.030366 0.115702 -0.012535 0.786503 -0.002219 -0.617582 127 127 127 255
0.030914 0.104856 -0.011797 0.786503 -0.002219 -0.617582 127 127 127 255
0.029576 0.104925 -0.013091 0.493975 0.008664 -0.869433 127 127 127 255
0.029519 0.115767 -0.013015 0.493975 0.008664 -0.869433 127 127 127 255
0.030366 0.115702 -0.012535 0.493975 0.008664 -0.869433 127 127 127 255
0.030366 0.115702 -0.012535 0.596074 -0.002247 -0.802926 127 127 127 255
0.030348 0.104241 -0.012515 0.596074 -0.002247 -0.802926 127 127 127 255
0.029576 0.104925 -0.013091 0.596074 -0.002247 -0.802926 127 127 127 255
3 0 1 2
3 3 4 5
3 6 7 8
3 9 10 11
3 12 13 14
3 15 16 17
3 18 19 20
3 21 22 23
3 24 25 26
3 27 28 29
3 30 31 32
3 33 34 35
3 36 37 38
3 39 40 41
3 42 43 44
3 45 46 47
3 48 49 50
3 51 52 53
3 54 55 56
3 57 58 59
3 60 61 62
3 63 64 65
3 66 67 68
3 69 70 71
3 72 73 74
3 75 76 77
3 78 79 80
3 81 82 83
3 84 85 86
3 87 88 89
3 90 91 92
3 93 94 95
3 96 97 98
3 99 100 101
3 102 103 104
3 105 106 107
3 108 109 110
3 111 112 113
3 114 115 116
3 117 118 119
3 120 121 122
3 123 124 125
3 126 127 128
3 129 130 131
3 132 133 134
3 135 136 137
3 138 139 140
3 141 142 143
3 144 145 146
3 147 148 149
3 150 151 152
3 153 154 155
3 156 157 158
3 159 160 161
3 162 163 164
3 165 166 167
3 168 169 170
3 171 172 173
3 174 175 176
3 177 178 179
3 180 181 182
3 183 184 185
3 186 187 188
3 189 190 191
3 192 193 194
3 195 196 197
3 198 199 200
3 201 202 203
3 204 205 206
3 207 208 209
