ply
format ascii 1.0
comment Created by Blender 2.82 (sub 7) - www.blender.org, source file: 'elbow_flex_link_collision.blend'
element vertex 208
property float x
property float y
property float z
property float nx
property float ny
property float nz
property uchar red
property uchar green
property uchar blue
property uchar alpha
element face 70
property list uchar uint vertex_indices
end_header
-0.029000 -0.104069 0.013022 -0.001734 0.716444 0.697643 127 127 127 255
0.029418 -0.103428 0.012509 -0.001734 0.716444 0.697643 127 127 127 255
-0.029000 -0.102938 0.011861 -0.001734 0.716444 0.697643 127 127 127 255
-0.029000 -0.102978 -0.011928 -0.001709 0.700245 -0.713901 127 127 127 255
0.029418 -0.103428 -0.012509 -0.001709 0.700245 -0.713901 127 127 127 255
-0.029000 -0.104134 -0.013061 -0.001709 0.700245 -0.713901 127 127 127 255
-0.029000 -0.115866 0.013061 -0.001856 -0.707107 0.707104 127 127 127 255
-0.029000 -0.117061 0.011866 -0.001856 -0.707107 0.707104 127 127 127 255
0.029418 -0.116572 0.012509 -0.001856 -0.707107 0.707104 127 127 127 255
0.030780 -0.104071 0.011691 0.732976 0.473949 0.487975 127 127 127 255
0.030312 -0.103425 0.011767 0.732976 0.473949 0.487975 127 127 127 255
0.030366 -0.104298 0.012535 0.732976 0.473949 0.487975 127 127 127 255
0.029418 -0.103428 0.012509 0.001880 0.872065 0.489386 127 127 127 255
0.029566 -0.102965 0.011683 0.001880 0.872065 0.489386 127 127 127 255
-0.029000 -0.102938 0.011861 0.001880 0.872065 0.489386 127 127 127 255
0.029418 -0.116572 -0.012509 -0.001549 -0.707106 -0.707106 127 127 127 255
-0.029000 -0.117022 -0.011931 -0.001549 -0.707106 -0.707106 127 127 127 255
-0.029000 -0.115931 -0.013022 -0.001549 -0.707106 -0.707106 127 127 127 255
0.029524 -0.102953 -0.011677 0.001749 0.868123 -0.496346 127 127 127 255
0.029418 -0.103428 -0.012509 0.001749 0.868123 -0.496346 127 127 127 255
-0.029000 -0.102978 -0.011928 0.001749 0.868123 -0.496346 127 127 127 255
0.030366 -0.104298 0.012535 0.851708 0.216692 0.477114 127 127 127 255
0.030924 -0.104803 0.011767 0.851708 0.216692 0.477114 127 127 127 255
0.030780 -0.104071 0.011691 0.851708 0.216692 0.477114 127 127 127 255
-0.029000 -0.115866 0.013061 0.001700 -0.525300 0.850915 127 127 127 255
0.029418 -0.116572 0.012509 0.001700 -0.525300 0.850915 127 127 127 255
0.029559 -0.115752 0.013015 0.001700 -0.525300 0.850915 127 127 127 255
-0.029000 -0.117061 0.011866 0.001669 -0.862946 0.505294 127 127 127 255
0.029586 -0.117033 0.011721 0.001669 -0.862946 0.505294 127 127 127 255
0.029418 -0.116572 0.012509 0.001669 -0.862946 0.505294 127 127 127 255
0.030366 -0.104298 0.012535 0.517622 0.582559 0.626652 127 127 127 255
0.030312 -0.103425 0.011767 0.517622 0.582559 0.626652 127 127 127 255
0.029418 -0.103428 0.012509 0.517622 0.582559 0.626652 127 127 127 255
-0.029000 -0.115931 -0.013022 0.001319 -0.548762 -0.835977 127 127 127 255
0.029501 -0.115897 -0.012952 0.001319 -0.548762 -0.835977 127 127 127 255
0.029418 -0.116572 -0.012509 0.001319 -0.548762 -0.835977 127 127 127 255
0.029576 -0.115075 -0.013091 0.001270 -0.166307 -0.986073 127 127 127 255
0.029501 -0.115897 -0.012952 0.001270 -0.166307 -0.986073 127 127 127 255
-0.029000 -0.115931 -0.013022 0.001270 -0.166307 -0.986073 127 127 127 255
0.029418 -0.103428 -0.012509 0.001575 0.532236 -0.846595 127 127 127 255
0.029519 -0.104233 -0.013015 0.001575 0.532236 -0.846595 127 127 127 255
-0.029000 -0.104134 -0.013061 0.001575 0.532236 -0.846595 127 127 127 255
0.030780 -0.115929 0.011691 0.847680 -0.209243 0.487499 127 127 127 255
0.030941 -0.115143 0.011750 0.847680 -0.209243 0.487499 127 127 127 255
0.030348 -0.115759 0.012515 0.847680 -0.209243 0.487499 127 127 127 255
0.030348 -0.115759 -0.012515 0.510066 -0.588651 -0.627154 127 127 127 255
0.030281 -0.116586 -0.011794 0.510066 -0.588651 -0.627154 127 127 127 255
0.029418 -0.116572 -0.012509 0.510066 -0.588651 -0.627154 127 127 127 255
0.030281 -0.116586 -0.011794 0.737296 -0.477312 -0.478088 127 127 127 255
0.030348 -0.115759 -0.012515 0.737296 -0.477312 -0.478088 127 127 127 255
0.030800 -0.115915 -0.011663 0.737296 -0.477312 -0.478088 127 127 127 255
0.029490 -0.104260 0.013035 0.001558 0.534408 0.845225 127 127 127 255
0.029418 -0.103428 0.012509 0.001558 0.534408 0.845225 127 127 127 255
-0.029000 -0.104069 0.013022 0.001558 0.534408 0.845225 127 127 127 255
0.029418 -0.103428 0.012509 0.444217 0.505915 0.739406 127 127 127 255
0.029490 -0.104260 0.013035 0.444217 0.505915 0.739406 127 127 127 255
0.030366 -0.104298 0.012535 0.444217 0.505915 0.739406 127 127 127 255
0.029566 -0.102965 0.011683 0.412629 0.760799 0.500922 127 127 127 255
0.029418 -0.103428 0.012509 0.412629 0.760799 0.500922 127 127 127 255
0.030312 -0.103425 0.011767 0.412629 0.760799 0.500922 127 127 127 255
-0.029000 -0.117022 -0.011931 0.001656 -0.863337 -0.504626 127 127 127 255
0.029418 -0.116572 -0.012509 0.001656 -0.863337 -0.504626 127 127 127 255
0.029579 -0.117045 -0.011699 0.001656 -0.863337 -0.504626 127 127 127 255
0.030281 -0.116586 -0.011794 0.417764 -0.745941 -0.518695 127 127 127 255
0.029579 -0.117045 -0.011699 0.417764 -0.745941 -0.518695 127 127 127 255
0.029418 -0.116572 -0.012509 0.417764 -0.745941 -0.518695 127 127 127 255
0.030348 -0.115759 -0.012515 0.455408 -0.526815 -0.717683 127 127 127 255
0.029418 -0.116572 -0.012509 0.455408 -0.526815 -0.717683 127 127 127 255
0.029501 -0.115897 -0.012952 0.455408 -0.526815 -0.717683 127 127 127 255
0.029559 -0.115752 0.013015 0.452254 -0.523242 0.722277 127 127 127 255
0.029418 -0.116572 0.012509 0.452254 -0.523242 0.722277 127 127 127 255
0.030348 -0.115759 0.012515 0.452254 -0.523242 0.722277 127 127 127 255
0.029524 -0.102953 -0.011677 0.395544 0.774736 -0.493284 127 127 127 255
0.030277 -0.103400 -0.011776 0.395544 0.774736 -0.493284 127 127 127 255
0.029418 -0.103428 -0.012509 0.395544 0.774736 -0.493284 127 127 127 255
0.030308 -0.116588 0.011753 0.430808 -0.735774 0.522533 127 127 127 255
0.029418 -0.116572 0.012509 0.430808 -0.735774 0.522533 127 127 127 255
0.029586 -0.117033 0.011721 0.430808 -0.735774 0.522533 127 127 127 255
0.029418 -0.116572 0.012509 0.514739 -0.593928 0.618299 127 127 127 255
0.030308 -0.116588 0.011753 0.514739 -0.593928 0.618299 127 127 127 255
0.030348 -0.115759 0.012515 0.514739 -0.593928 0.618299 127 127 127 255
0.030348 -0.115759 0.012515 0.732200 -0.480195 0.483007 127 127 127 255
0.030308 -0.116588 0.011753 0.732200 -0.480195 0.483007 127 127 127 255
0.030780 -0.115929 0.011691 0.732200 -0.480195 0.483007 127 127 127 255
0.029576 -0.115075 -0.013091 0.473810 -0.188523 -0.860211 127 127 127 255
0.030348 -0.115759 -0.012515 0.473810 -0.188523 -0.860211 127 127 127 255
0.029501 -0.115897 -0.012952 0.473810 -0.188523 -0.860211 127 127 127 255
0.030914 -0.115144 -0.011797 0.847371 -0.210295 -0.487585 127 127 127 255
0.030800 -0.115915 -0.011663 0.847371 -0.210295 -0.487585 127 127 127 255
0.030348 -0.115759 -0.012515 0.847371 -0.210295 -0.487585 127 127 127 255
0.030800 -0.104085 -0.011663 0.732909 0.479746 -0.482378 127 127 127 255
0.030366 -0.104298 -0.012535 0.732909 0.479746 -0.482378 127 127 127 255
0.030277 -0.103400 -0.011776 0.732909 0.479746 -0.482378 127 127 127 255
0.030366 -0.104298 -0.012535 0.452551 0.514665 -0.728229 127 127 127 255
0.029519 -0.104233 -0.013015 0.452551 0.514665 -0.728229 127 127 127 255
0.029418 -0.103428 -0.012509 0.452551 0.514665 -0.728229 127 127 127 255
0.030277 -0.103400 -0.011776 0.516796 0.581705 -0.628125 127 127 127 255
0.030366 -0.104298 -0.012535 0.516796 0.581705 -0.628125 127 127 127 255
0.029418 -0.103428 -0.012509 0.516796 0.581705 -0.628125 127 127 127 255
0.030934 -0.104896 -0.011766 0.856060 0.201566 -0.475955 127 127 127 255
0.030366 -0.104298 -0.012535 0.856060 0.201566 -0.475955 127 127 127 255
0.030800 -0.104085 -0.011663 0.856060 0.201566 -0.475955 127 127 127 255
-0.029000 -0.117022 -0.011931 -0.000389 -0.999999 -0.001665 127 127 127 255
0.029579 -0.117045 -0.011699 -0.000389 -0.999999 -0.001665 127 127 127 255
-0.029000 -0.117061 0.011866 -0.000389 -0.999999 -0.001665 127 127 127 255
-0.029000 -0.117061 0.011866 0.000482 -1.000000 0.000501 127 127 127 255
0.029579 -0.117045 -0.011699 0.000482 -1.000000 0.000501 127 127 127 255
0.029586 -0.117033 0.011721 0.000482 -1.000000 0.000501 127 127 127 255
-0.029000 -0.102938 0.011861 -0.000425 0.999998 -0.001667 127 127 127 255
0.029524 -0.102953 -0.011677 -0.000425 0.999998 -0.001667 127 127 127 255
-0.029000 -0.102978 -0.011928 -0.000425 0.999998 -0.001667 127 127 127 255
0.029566 -0.102965 0.011683 0.000448 1.000000 0.000504 127 127 127 255
0.029524 -0.102953 -0.011677 0.000448 1.000000 0.000504 127 127 127 255
-0.029000 -0.102938 0.011861 0.000448 1.000000 0.000504 127 127 127 255
-0.029000 -0.115866 0.013061 -0.000213 0.003358 0.999994 127 127 127 255
0.029490 -0.104260 0.013035 -0.000213 0.003358 0.999994 127 127 127 255
-0.029000 -0.104069 0.013022 -0.000213 0.003358 0.999994 127 127 127 255
0.029559 -0.115752 0.013015 0.000791 -0.001705 0.999998 127 127 127 255
0.029490 -0.104260 0.013035 0.000791 -0.001705 0.999998 127 127 127 255
-0.029000 -0.115866 0.013061 0.000791 -0.001705 0.999998 127 127 127 255
0.030348 -0.115759 0.012515 0.534660 -0.002226 0.845064 127 127 127 255
0.030366 -0.104298 0.012535 0.534660 -0.002226 0.845064 127 127 127 255
0.029559 -0.115752 0.013015 0.534660 -0.002226 0.845064 127 127 127 255
0.029490 -0.104260 0.013035 0.495962 0.001477 0.868343 127 127 127 255
0.029559 -0.115752 0.013015 0.495962 0.001477 0.868343 127 127 127 255
0.030366 -0.104298 0.012535 0.495962 0.001477 0.868343 127 127 127 255
-0.029000 -0.104069 0.013022 -1.000000 0.000001 -0.000000 127 127 127 255
-0.029000 -0.102938 0.011861 -1.000000 0.000001 -0.000000 127 127 127 255
-0.029000 -0.117022 -0.011931 -1.000000 0.000001 -0.000000 127 127 127 255
-0.029000 -0.102978 -0.011928 -1.000000 0.000001 0.000000 127 127 127 255
-0.029000 -0.117022 -0.011931 -1.000000 -0.000001 0.000001 127 127 127 255
-0.029000 -0.117061 0.011866 -1.000000 -0.000001 0.000001 127 127 127 255
-0.029000 -0.115866 0.013061 -1.000000 -0.000001 0.000001 127 127 127 255
-0.029000 -0.115866 0.013061 -1.000000 -0.000000 0.000001 127 127 127 255
-0.029000 -0.104069 0.013022 -1.000000 -0.000000 0.000001 127 127 127 255
-0.029000 -0.117022 -0.011931 -1.000000 -0.000000 0.000001 127 127 127 255
-0.029000 -0.104134 -0.013061 -1.000000 -0.000000 -0.000019 127 127 127 255
-0.029000 -0.115931 -0.013022 -1.000000 -0.000000 -0.000019 127 127 127 255
-0.029000 -0.117022 -0.011931 -1.000000 -0.000000 -0.000019 127 127 127 255
-0.029000 -0.104134 -0.013061 -1.000000 0.000001 -0.000006 127 127 127 255
-0.029000 -0.117022 -0.011931 -1.000000 0.000001 -0.000006 127 127 127 255
-0.029000 -0.102978 -0.011928 -1.000000 0.000001 -0.000006 127 127 127 255
0.030934 -0.104896 -0.011766 0.999999 0.001609 0.000401 127 127 127 255
0.030924 -0.104803 0.011767 0.999999 0.001609 0.000401 127 127 127 255
0.030941 -0.115143 0.011750 0.999999 0.001609 0.000401 127 127 127 255
0.030914 -0.115144 -0.011797 0.999998 -0.001866 -0.001113 127 127 127 255
0.030934 -0.104896 -0.011766 0.999998 -0.001866 -0.001113 127 127 127 255
0.030941 -0.115143 0.011750 0.999998 -0.001866 -0.001113 127 127 127 255
-0.029000 -0.104134 -0.013061 -0.001128 -0.003358 -0.999994 127 127 127 255
0.029576 -0.115075 -0.013091 -0.001128 -0.003358 -0.999994 127 127 127 255
-0.029000 -0.115931 -0.013022 -0.001128 -0.003358 -0.999994 127 127 127 255
0.029519 -0.104233 -0.013015 0.000804 0.006987 -0.999975 127 127 127 255
0.029576 -0.115075 -0.013091 0.000804 0.006987 -0.999975 127 127 127 255
-0.029000 -0.104134 -0.013061 0.000804 0.006987 -0.999975 127 127 127 255
0.030914 -0.115144 -0.011797 0.989141 -0.146968 -0.001093 127 127 127 255
0.030941 -0.115143 0.011750 0.989141 -0.146968 -0.001093 127 127 127 255
0.030800 -0.115915 -0.011663 0.989141 -0.146968 -0.001093 127 127 127 255
0.030780 -0.115929 0.011691 0.979819 -0.199886 0.000708 127 127 127 255
0.030800 -0.115915 -0.011663 0.979819 -0.199886 0.000708 127 127 127 255
0.030941 -0.115143 0.011750 0.979819 -0.199886 0.000708 127 127 127 255
0.030348 -0.115759 0.012515 0.791768 -0.002216 0.610817 127 127 127 255
0.030941 -0.115143 0.011750 0.791768 -0.002216 0.610817 127 127 127 255
0.030366 -0.104298 0.012535 0.791768 -0.002216 0.610817 127 127 127 255
0.030366 -0.104298 0.012535 0.808714 0.000320 0.588202 127 127 127 255
0.030941 -0.115143 0.011750 0.808714 0.000320 0.588202 127 127 127 255
0.030924 -0.104803 0.011767 0.808714 0.000320 0.588202 127 127 127 255
0.030934 -0.104896 -0.011766 0.986710 0.162490 -0.000241 127 127 127 255
0.030800 -0.104085 -0.011663 0.986710 0.162490 -0.000241 127 127 127 255
0.030924 -0.104803 0.011767 0.986710 0.162490 -0.000241 127 127 127 255
0.030780 -0.104071 0.011691 0.981252 0.192727 0.000713 127 127 127 255
0.030924 -0.104803 0.011767 0.981252 0.192727 0.000713 127 127 127 255
0.030800 -0.104085 -0.011663 0.981252 0.192727 0.000713 127 127 127 255
0.030780 -0.115929 0.011691 0.812584 -0.582845 0.000328 127 127 127 255
0.030308 -0.116588 0.011753 0.812584 -0.582845 0.000328 127 127 127 255
0.030800 -0.115915 -0.011663 0.812584 -0.582845 0.000328 127 127 127 255
0.030281 -0.116586 -0.011794 0.790814 -0.612056 -0.000970 127 127 127 255
0.030800 -0.115915 -0.011663 0.790814 -0.612056 -0.000970 127 127 127 255
0.030308 -0.116588 0.011753 0.790814 -0.612056 -0.000970 127 127 127 255
0.029579 -0.117045 -0.011699 0.524994 -0.851106 0.000257 127 127 127 255
0.030308 -0.116588 0.011753 0.524994 -0.851106 0.000257 127 127 127 255
0.029586 -0.117033 0.011721 0.524994 -0.851106 0.000257 127 127 127 255
0.030308 -0.116588 0.011753 0.547318 -0.836924 -0.000713 127 127 127 255
0.029579 -0.117045 -0.011699 0.547318 -0.836924 -0.000713 127 127 127 255
0.030281 -0.116586 -0.011794 0.547318 -0.836924 -0.000713 127 127 127 255
0.029524 -0.102953 -0.011677 0.510525 0.859863 -0.000495 127 127 127 255
0.029566 -0.102965 0.011683 0.510525 0.859863 -0.000495 127 127 127 255
0.030277 -0.103400 -0.011776 0.510525 0.859863 -0.000495 127 127 127 255
0.030312 -0.103425 0.011767 0.525190 0.850985 0.000115 127 127 127 255
0.030277 -0.103400 -0.011776 0.525190 0.850985 0.000115 127 127 127 255
0.029566 -0.102965 0.011683 0.525190 0.850985 0.000115 127 127 127 255
0.030800 -0.104085 -0.011663 0.795114 0.606460 -0.000534 127 127 127 255
0.030277 -0.103400 -0.011776 0.795114 0.606460 -0.000534 127 127 127 255
0.030312 -0.103425 0.011767 0.795114 0.606460 -0.000534 127 127 127 255
0.030780 -0.104071 0.011691 0.809698 0.586847 0.000323 127 127 127 255
0.030800 -0.104085 -0.011663 0.809698 0.586847 0.000323 127 127 127 255
0.030312 -0.103425 0.011767 0.809698 0.586847 0.000323 127 127 127 255
0.030934 -0.104896 -0.011766 0.804202 0.000257 -0.594356 127 127 127 255
0.030914 -0.115144 -0.011797 0.804202 0.000257 -0.594356 127 127 127 255
0.030366 -0.104298 -0.012535 0.804202 0.000257 -0.594356 127 127 127 255
0.030348 -0.115759 -0.012515 0.786503 -0.002219 -0.617582 127 127 127 255
0.030366 -0.104298 -0.012535 0.786503 -0.002219 -0.617582 127 127 127 255
0.030914 -0.115144 -0.011797 0.786503 -0.002219 -0.617582 127 127 127 255
0.029576 -0.115075 -0.013091 0.493976 0.008664 -0.869432 127 127 127 255
0.029519 -0.104233 -0.013015 0.493976 0.008664 -0.869432 127 127 127 255
0.030366 -0.104298 -0.012535 0.493976 0.008664 -0.869432 127 127 127 255
0.030366 -0.104298 -0.012535 0.596074 -0.002247 -0.802926 127 127 127 255
0.030348 -0.115759 -0.012515 0.596074 -0.002247 -0.802926 127 127 127 255
0.029576 -0.115075 -0.013091 0.596074 -0.002247 -0.802926 127 127 127 255
3 0 1 2
3 3 4 5
3 6 7 8
3 9 10 11
3 12 13 14
3 15 16 17
3 18 19 20
3 21 22 23
3 24 25 26
3 27 28 29
3 30 31 32
3 33 34 35
3 36 37 38
3 39 40 41
3 42 43 44
3 45 46 47
3 48 49 50
3 51 52 53
3 54 55 56
3 57 58 59
3 60 61 62
3 63 64 65
3 66 67 68
3 69 70 71
3 72 73 74
3 75 76 77
3 78 79 80
3 81 82 83
3 84 85 86
3 87 88 89
3 90 91 92
3 93 94 95
3 96 97 98
3 99 100 101
3 102 103 104
3 105 106 107
3 108 109 110
3 111 112 113
3 114 115 116
3 117 118 119
3 120 121 122
3 123 124 125
3 126 127 128
3 129 128 127
3 130 131 132
3 133 134 135
3 136 137 138
3 139 140 141
3 142 143 144
3 145 146 147
3 148 149 150
3 151 152 153
3 154 155 156
3 157 158 159
3 160 161 162
3 163 164 165
3 166 167 168
3 169 170 171
3 172 173 174
3 175 176 177
3 178 179 180
3 181 182 183
3 184 185 186
3 187 188 189
3 190 191 192
3 193 194 195
3 196 197 198
3 199 200 201
3 202 203 204
3 205 206 207
