ply
format ascii 1.0
comment Created by Blender 2.82 (sub 7) - www.blender.org, source file: 'elbow_flex_link_collision.blend'
element vertex 638
property float x
property float y
property float z
property float nx
property float ny
property float nz
property uchar red
property uchar green
property uchar blue
property uchar alpha
element face 230
property list uchar uint vertex_indices
end_header
0.007932 0.039539 -0.032327 0.870363 0.354747 -0.341501 255 255 255 255
0.019500 0.024877 -0.018074 0.870363 0.354747 -0.341501 255 255 255 255
0.019502 0.018296 -0.024906 0.870363 0.354747 -0.341501 255 255 255 255
0.019508 -0.030469 0.006380 0.875499 -0.482257 -0.030479 255 255 255 255
0.007927 -0.050701 -0.006153 0.875499 -0.482257 -0.030479 255 255 255 255
0.019502 -0.029492 -0.009241 0.875499 -0.482257 -0.030479 255 255 255 255
0.005000 -0.050852 -0.010868 0.248375 -0.960754 -0.123537 255 255 255 255
0.007927 -0.050701 -0.006153 0.248375 -0.960754 -0.123537 255 255 255 255
0.005000 -0.051947 -0.002350 0.248375 -0.960754 -0.123537 255 255 255 255
0.005000 0.006632 -0.051575 0.253193 0.202193 -0.946051 255 255 255 255
0.005000 0.015030 -0.049780 0.253193 0.202193 -0.946051 255 255 255 255
0.007921 0.012177 -0.049609 0.253193 0.202193 -0.946051 255 255 255 255
0.019500 0.024877 0.018074 0.871994 0.352663 0.339493 255 255 255 255
0.007924 0.036833 0.035387 0.871994 0.352663 0.339493 255 255 255 255
0.019502 0.018296 0.024906 0.871994 0.352663 0.339493 255 255 255 255
0.019500 0.024877 -0.018074 0.867336 0.409952 -0.282255 255 255 255 255
0.007932 0.039539 -0.032327 0.867336 0.409952 -0.282255 255 255 255 255
0.007922 0.044233 -0.025540 0.867336 0.409952 -0.282255 255 255 255 255
0.005000 -0.050852 -0.010868 0.349238 -0.918081 -0.187513 255 255 255 255
0.007929 -0.049052 -0.014225 0.349238 -0.918081 -0.187513 255 255 255 255
0.007927 -0.050701 -0.006153 0.349238 -0.918081 -0.187513 255 255 255 255
0.019500 -0.024877 -0.018074 0.871994 -0.352664 -0.339492 255 255 255 255
0.007924 -0.036833 -0.035387 0.871994 -0.352664 -0.339492 255 255 255 255
0.019503 -0.018295 -0.024905 0.871994 -0.352664 -0.339492 255 255 255 255
0.007940 -0.051022 0.002103 0.864195 -0.499315 0.062051 255 255 255 255
0.019508 -0.030469 0.006380 0.864195 -0.499315 0.062051 255 255 255 255
0.007924 -0.050042 0.010216 0.864195 -0.499315 0.062051 255 255 255 255
0.019500 -0.024877 0.018074 0.872563 -0.440479 0.211214 255 255 255 255
0.007922 -0.044233 0.025540 0.872563 -0.440479 0.211214 255 255 255 255
0.019508 -0.030469 0.006380 0.872563 -0.440479 0.211214 255 255 255 255
0.005000 -0.036912 0.036627 0.249057 -0.628790 0.736610 255 255 255 255
0.007917 -0.033866 0.038241 0.249057 -0.628790 0.736610 255 255 255 255
0.005000 -0.030380 0.042203 0.249057 -0.628790 0.736610 255 255 255 255
0.005000 0.042437 -0.030052 0.249487 0.741372 -0.622996 255 255 255 255
0.007932 0.039539 -0.032327 0.249487 0.741372 -0.622996 255 255 255 255
0.005000 0.036912 -0.036627 0.249487 0.741372 -0.622996 255 255 255 255
0.005000 0.051625 -0.006232 0.248003 0.948904 -0.195132 255 255 255 255
0.007924 0.050042 -0.010216 0.248003 0.948904 -0.195132 255 255 255 255
0.005000 0.049895 -0.014644 0.248003 0.948904 -0.195132 255 255 255 255
0.005000 -0.018715 -0.048516 0.254044 -0.421421 -0.870555 255 255 255 255
0.007928 -0.023659 -0.045268 0.254044 -0.421421 -0.870555 255 255 255 255
0.005000 -0.026445 -0.044774 0.254044 -0.421421 -0.870555 255 255 255 255
0.005000 0.006632 -0.051575 0.362888 0.135841 -0.921878 255 255 255 255
0.007921 0.012177 -0.049609 0.362888 0.135841 -0.921878 255 255 255 255
0.007927 0.002057 -0.051097 0.362888 0.135841 -0.921878 255 255 255 255
0.005000 -0.010474 -0.050934 0.254607 -0.272343 -0.927903 255 255 255 255
0.007907 -0.016135 -0.048475 0.254607 -0.272343 -0.927903 255 255 255 255
0.005000 -0.018715 -0.048516 0.254607 -0.272343 -0.927903 255 255 255 255
0.005000 0.001948 0.051964 0.258112 0.115789 0.959151 255 255 255 255
0.007920 0.008163 0.050427 0.258112 0.115789 0.959151 255 255 255 255
0.005000 0.010474 0.050934 0.258112 0.115789 0.959151 255 255 255 255
0.005000 -0.015030 0.049780 0.253193 -0.202193 0.946051 255 255 255 255
0.007921 -0.012177 0.049609 0.253193 -0.202193 0.946051 255 255 255 255
0.005000 -0.006632 0.051575 0.253193 -0.202193 0.946051 255 255 255 255
0.005000 0.051947 0.002350 0.249429 0.967713 -0.036273 255 255 255 255
0.007940 0.051022 -0.002103 0.249429 0.967713 -0.036273 255 255 255 255
0.005000 0.051625 -0.006232 0.249429 0.967713 -0.036273 255 255 255 255
0.005000 0.051947 0.002350 0.350317 0.935903 0.036933 255 255 255 255
0.007927 0.050701 0.006153 0.350317 0.935903 0.036933 255 255 255 255
0.007940 0.051022 -0.002103 0.350317 0.935903 0.036933 255 255 255 255
0.019508 0.030469 0.006380 0.874273 0.437712 0.209892 255 255 255 255
0.007939 0.046103 0.021966 0.874273 0.437712 0.209892 255 255 255 255
0.019500 0.024877 0.018074 0.874273 0.437712 0.209892 255 255 255 255
0.019500 0.024877 0.018074 0.868929 0.427581 0.249273 255 255 255 255
0.007939 0.046103 0.021966 0.868929 0.427581 0.249273 255 255 255 255
0.007916 0.042032 0.029027 0.868929 0.427581 0.249273 255 255 255 255
0.007924 0.036833 0.035387 0.867677 0.385421 0.313985 255 255 255 255
0.019500 0.024877 0.018074 0.867677 0.385421 0.313985 255 255 255 255
0.007916 0.042032 0.029027 0.867677 0.385421 0.313985 255 255 255 255
0.005000 0.033454 0.039810 0.251243 0.681771 0.687070 255 255 255 255
0.007924 0.036833 0.035387 0.251243 0.681771 0.687070 255 255 255 255
0.005000 0.039550 0.033761 0.251243 0.681771 0.687070 255 255 255 255
0.005000 0.051947 0.002350 0.248375 0.960754 0.123537 255 255 255 255
0.005000 0.050852 0.010868 0.248375 0.960754 0.123537 255 255 255 255
0.007927 0.050701 0.006153 0.248375 0.960754 0.123537 255 255 255 255
0.005000 0.048369 0.019090 0.248910 0.927186 0.279947 255 255 255 255
0.007929 0.049052 0.014225 0.248910 0.927186 0.279947 255 255 255 255
0.005000 0.050852 0.010868 0.248910 0.927186 0.279947 255 255 255 255
0.005000 -0.030380 0.042203 0.251780 -0.498609 0.829455 255 255 255 255
0.007932 -0.027323 0.043150 0.251780 -0.498609 0.829455 255 255 255 255
0.005000 -0.023019 0.046628 0.251780 -0.498609 0.829455 255 255 255 255
0.007932 -0.027323 0.043150 0.344564 -0.436660 0.831025 255 255 255 255
0.007919 -0.020003 0.047002 0.344564 -0.436660 0.831025 255 255 255 255
0.005000 -0.023019 0.046628 0.344564 -0.436660 0.831025 255 255 255 255
0.005000 -0.023019 0.046628 0.251635 -0.355299 0.900246 255 255 255 255
0.007919 -0.020003 0.047002 0.251635 -0.355299 0.900246 255 255 255 255
0.005000 -0.015030 0.049780 0.251635 -0.355299 0.900246 255 255 255 255
0.005000 -0.036912 0.036627 0.346875 -0.676418 0.649720 255 255 255 255
0.007932 -0.039539 0.032327 0.346875 -0.676418 0.649720 255 255 255 255
0.007917 -0.033866 0.038241 0.346875 -0.676418 0.649720 255 255 255 255
0.005000 -0.036912 0.036627 0.249487 -0.741372 0.622996 255 255 255 255
0.005000 -0.042437 0.030052 0.249487 -0.741372 0.622996 255 255 255 255
0.007932 -0.039539 0.032327 0.249487 -0.741372 0.622996 255 255 255 255
0.007916 -0.042032 -0.029027 0.867677 -0.385421 -0.313985 255 255 255 255
0.007924 -0.036833 -0.035387 0.867677 -0.385421 -0.313985 255 255 255 255
0.019500 -0.024877 -0.018074 0.867677 -0.385421 -0.313985 255 255 255 255
0.007927 -0.050701 -0.006153 0.867270 -0.487807 -0.099436 255 255 255 255
0.007929 -0.049052 -0.014225 0.867270 -0.487807 -0.099436 255 255 255 255
0.019502 -0.029492 -0.009241 0.867270 -0.487807 -0.099436 255 255 255 255
0.007924 -0.050042 0.010216 0.863912 -0.484036 0.139158 255 255 255 255
0.019508 -0.030469 0.006380 0.863912 -0.484036 0.139158 255 255 255 255
0.007935 -0.047760 0.018084 0.863912 -0.484036 0.139158 255 255 255 255
0.007940 -0.051022 0.002103 0.350317 -0.935903 -0.036933 255 255 255 255
0.005000 -0.051947 -0.002350 0.350317 -0.935903 -0.036933 255 255 255 255
0.007927 -0.050701 -0.006153 0.350317 -0.935903 -0.036933 255 255 255 255
0.007927 -0.050701 -0.006153 0.873068 -0.487175 -0.020294 255 255 255 255
0.019508 -0.030469 0.006380 0.873068 -0.487175 -0.020294 255 255 255 255
0.007940 -0.051022 0.002103 0.873068 -0.487175 -0.020294 255 255 255 255
0.019502 -0.018296 0.024906 0.870363 -0.354747 0.341501 255 255 255 255
0.007932 -0.039539 0.032327 0.870363 -0.354747 0.341501 255 255 255 255
0.019500 -0.024877 0.018074 0.870363 -0.354747 0.341501 255 255 255 255
0.019502 -0.018296 0.024906 0.870216 -0.354418 0.342215 255 255 255 255
0.007917 -0.033866 0.038241 0.870216 -0.354418 0.342215 255 255 255 255
0.007932 -0.039539 0.032327 0.870216 -0.354418 0.342215 255 255 255 255
0.007922 -0.044233 0.025540 0.872282 -0.441450 0.210347 255 255 255 255
0.007935 -0.047760 0.018084 0.872282 -0.441450 0.210347 255 255 255 255
0.019508 -0.030469 0.006380 0.872282 -0.441450 0.210347 255 255 255 255
0.007922 -0.044233 0.025540 0.867336 -0.409952 0.282255 255 255 255 255
0.019500 -0.024877 0.018074 0.867336 -0.409952 0.282255 255 255 255 255
0.007932 -0.039539 0.032327 0.867336 -0.409952 0.282255 255 255 255 255
0.007940 -0.051022 0.002103 0.249429 -0.967713 0.036273 255 255 255 255
0.005000 -0.051625 0.006232 0.249429 -0.967713 0.036273 255 255 255 255
0.005000 -0.051947 -0.002350 0.249429 -0.967713 0.036273 255 255 255 255
0.007932 -0.027323 0.043150 0.865583 -0.301854 0.399563 255 255 255 255
0.007917 -0.033866 0.038241 0.865583 -0.301854 0.399563 255 255 255 255
0.019502 -0.018296 0.024906 0.865583 -0.301854 0.399563 255 255 255 255
0.007919 0.020003 -0.047002 0.869328 0.228911 -0.438028 255 255 255 255
0.007932 0.027323 -0.043150 0.869328 0.228911 -0.438028 255 255 255 255
0.019502 0.018296 -0.024906 0.869328 0.228911 -0.438028 255 255 255 255
0.007932 0.027323 -0.043150 0.865583 0.301854 -0.399563 255 255 255 255
0.007917 0.033866 -0.038241 0.865583 0.301854 -0.399563 255 255 255 255
0.019502 0.018296 -0.024906 0.865583 0.301854 -0.399563 255 255 255 255
0.005000 0.049895 -0.014644 0.249068 0.903589 -0.348557 255 255 255 255
0.007935 0.047760 -0.018084 0.249068 0.903589 -0.348557 255 255 255 255
0.005000 0.046804 -0.022657 0.249068 0.903589 -0.348557 255 255 255 255
0.005000 0.015030 -0.049780 0.251636 0.355299 -0.900246 255 255 255 255
0.005000 0.023019 -0.046628 0.251636 0.355299 -0.900246 255 255 255 255
0.007919 0.020003 -0.047002 0.251636 0.355299 -0.900246 255 255 255 255
0.007921 0.012177 -0.049609 0.342546 0.296959 -0.891335 255 255 255 255
0.005000 0.015030 -0.049780 0.342546 0.296959 -0.891335 255 255 255 255
0.007919 0.020003 -0.047002 0.342546 0.296959 -0.891335 255 255 255 255
0.005000 -0.018715 -0.048516 0.338769 -0.368154 -0.865851 255 255 255 255
0.007907 -0.016135 -0.048475 0.338769 -0.368154 -0.865851 255 255 255 255
0.007928 -0.023659 -0.045268 0.338769 -0.368154 -0.865851 255 255 255 255
0.019502 -0.029492 -0.009241 0.866157 -0.467389 -0.176975 255 255 255 255
0.007929 -0.049052 -0.014225 0.866157 -0.467389 -0.176975 255 255 255 255
0.007939 -0.046103 -0.021966 0.866157 -0.467389 -0.176975 255 255 255 255
0.019502 -0.029492 -0.009241 0.872178 -0.433490 -0.226697 255 255 255 255
0.007939 -0.046103 -0.021966 0.872178 -0.433490 -0.226697 255 255 255 255
0.019500 -0.024877 -0.018074 0.872178 -0.433490 -0.226697 255 255 255 255
0.019500 -0.024877 -0.018074 0.868929 -0.427581 -0.249273 255 255 255 255
0.007939 -0.046103 -0.021966 0.868929 -0.427581 -0.249273 255 255 255 255
0.007916 -0.042032 -0.029027 0.868929 -0.427581 -0.249273 255 255 255 255
0.005000 0.018715 0.048516 0.254043 0.421421 0.870555 255 255 255 255
0.007928 0.023658 0.045268 0.254043 0.421421 0.870555 255 255 255 255
0.005000 0.026445 0.044774 0.254043 0.421421 0.870555 255 255 255 255
0.005000 0.033454 0.039810 0.343700 0.622623 0.703001 255 255 255 255
0.007918 0.030662 0.040856 0.343700 0.622623 0.703001 255 255 255 255
0.007924 0.036833 0.035387 0.343700 0.622623 0.703001 255 255 255 255
0.019502 0.018296 0.024906 0.866851 0.330193 0.373553 255 255 255 255
0.007924 0.036833 0.035387 0.866851 0.330193 0.373553 255 255 255 255
0.007918 0.030662 0.040856 0.866851 0.330193 0.373553 255 255 255 255
0.019502 0.018296 0.024906 0.866317 0.267084 0.422091 255 255 255 255
0.007918 0.030662 0.040856 0.866317 0.267084 0.422091 255 255 255 255
0.007928 0.023658 0.045268 0.866317 0.267084 0.422091 255 255 255 255
0.019508 0.030469 0.006380 0.867118 0.465829 0.176379 255 255 255 255
0.007929 0.049052 0.014225 0.867118 0.465829 0.176379 255 255 255 255
0.007939 0.046103 0.021966 0.867118 0.465829 0.176379 255 255 255 255
0.007927 0.050701 0.006153 0.349238 0.918080 0.187513 255 255 255 255
0.005000 0.050852 0.010868 0.349238 0.918080 0.187513 255 255 255 255
0.007929 0.049052 0.014225 0.349238 0.918080 0.187513 255 255 255 255
0.005000 0.048369 0.019090 0.250143 0.868177 0.428599 255 255 255 255
0.005000 0.044567 0.026791 0.250143 0.868177 0.428599 255 255 255 255
0.007939 0.046103 0.021966 0.250143 0.868177 0.428599 255 255 255 255
0.007917 -0.033866 0.038241 0.345311 -0.563780 0.750275 255 255 255 255
0.007932 -0.027323 0.043150 0.345311 -0.563780 0.750275 255 255 255 255
0.005000 -0.030380 0.042203 0.345311 -0.563780 0.750275 255 255 255 255
0.007919 -0.020003 0.047002 0.342546 -0.296959 0.891335 255 255 255 255
0.007921 -0.012177 0.049609 0.342546 -0.296959 0.891335 255 255 255 255
0.005000 -0.015030 0.049780 0.342546 -0.296959 0.891335 255 255 255 255
0.005000 -0.044567 -0.026791 0.250144 -0.868177 -0.428599 255 255 255 255
0.007939 -0.046103 -0.021966 0.250144 -0.868177 -0.428599 255 255 255 255
0.005000 -0.048369 -0.019090 0.250144 -0.868177 -0.428599 255 255 255 255
0.007916 -0.042032 -0.029027 0.346193 -0.812326 -0.469337 255 255 255 255
0.007939 -0.046103 -0.021966 0.346193 -0.812326 -0.469337 255 255 255 255
0.005000 -0.044567 -0.026791 0.346193 -0.812326 -0.469337 255 255 255 255
0.005000 -0.044567 -0.026791 0.249323 -0.785963 -0.565774 255 255 255 255
0.005000 -0.039550 -0.033761 0.249323 -0.785963 -0.565774 255 255 255 255
0.007916 -0.042032 -0.029027 0.249323 -0.785963 -0.565774 255 255 255 255
0.007924 -0.036833 -0.035387 0.345055 -0.726892 -0.593771 255 255 255 255
0.007916 -0.042032 -0.029027 0.345055 -0.726892 -0.593771 255 255 255 255
0.005000 -0.039550 -0.033761 0.345055 -0.726892 -0.593771 255 255 255 255
0.005000 -0.033454 -0.039810 0.251243 -0.681771 -0.687070 255 255 255 255
0.007924 -0.036833 -0.035387 0.251243 -0.681771 -0.687070 255 255 255 255
0.005000 -0.039550 -0.033761 0.251243 -0.681771 -0.687070 255 255 255 255
0.007918 -0.030662 -0.040856 0.343700 -0.622623 -0.703001 255 255 255 255
0.007924 -0.036833 -0.035387 0.343700 -0.622623 -0.703001 255 255 255 255
0.005000 -0.033454 -0.039810 0.343700 -0.622623 -0.703001 255 255 255 255
0.005000 -0.051625 0.006232 0.248003 -0.948904 0.195132 255 255 255 255
0.007924 -0.050042 0.010216 0.248003 -0.948904 0.195132 255 255 255 255
0.005000 -0.049895 0.014644 0.248003 -0.948904 0.195132 255 255 255 255
0.007924 -0.050042 0.010216 0.349545 -0.899961 0.260552 255 255 255 255
0.007935 -0.047760 0.018084 0.349545 -0.899961 0.260552 255 255 255 255
0.005000 -0.049895 0.014644 0.349545 -0.899961 0.260552 255 255 255 255
0.005000 -0.051625 0.006232 0.349583 -0.930056 0.113085 255 255 255 255
0.007940 -0.051022 0.002103 0.349583 -0.930056 0.113085 255 255 255 255
0.007924 -0.050042 0.010216 0.349583 -0.930056 0.113085 255 255 255 255
0.005000 0.030380 -0.042203 0.249057 0.628790 -0.736610 255 255 255 255
0.005000 0.036912 -0.036627 0.249057 0.628790 -0.736610 255 255 255 255
0.007917 0.033866 -0.038241 0.249057 0.628790 -0.736610 255 255 255 255
0.005000 0.030380 -0.042203 0.251780 0.498609 -0.829455 255 255 255 255
0.007932 0.027323 -0.043150 0.251780 0.498609 -0.829455 255 255 255 255
0.005000 0.023019 -0.046628 0.251780 0.498609 -0.829455 255 255 255 255
0.007924 0.050042 -0.010216 0.349545 0.899961 -0.260553 255 255 255 255
0.007935 0.047760 -0.018084 0.349545 0.899961 -0.260553 255 255 255 255
0.005000 0.049895 -0.014644 0.349545 0.899961 -0.260553 255 255 255 255
0.007935 0.047760 -0.018084 0.349517 0.846711 -0.401145 255 255 255 255
0.007922 0.044233 -0.025540 0.349517 0.846711 -0.401145 255 255 255 255
0.005000 0.046804 -0.022657 0.349517 0.846711 -0.401145 255 255 255 255
0.007919 0.020003 -0.047002 0.874161 0.199319 -0.442849 255 255 255 255
0.019502 0.018296 -0.024906 0.874161 0.199319 -0.442849 255 255 255 255
0.019503 0.006336 -0.030287 0.874161 0.199319 -0.442849 255 255 255 255
0.007932 0.027323 -0.043150 0.344564 0.436660 -0.831026 255 255 255 255
0.007919 0.020003 -0.047002 0.344564 0.436660 -0.831026 255 255 255 255
0.005000 0.023019 -0.046628 0.344564 0.436660 -0.831026 255 255 255 255
0.019503 0.006336 -0.030287 0.867270 0.157501 -0.472267 255 255 255 255
0.007921 0.012177 -0.049609 0.867270 0.157501 -0.472267 255 255 255 255
0.007919 0.020003 -0.047002 0.867270 0.157501 -0.472267 255 255 255 255
0.007918 -0.030662 -0.040856 0.866317 -0.267084 -0.422091 255 255 255 255
0.007928 -0.023659 -0.045268 0.866317 -0.267084 -0.422091 255 255 255 255
0.019503 -0.018295 -0.024905 0.866317 -0.267084 -0.422091 255 255 255 255
0.007907 -0.016135 -0.048475 0.336418 -0.224524 -0.914556 255 255 255 255
0.005000 -0.010474 -0.050934 0.336418 -0.224524 -0.914556 255 255 255 255
0.007920 -0.008163 -0.050427 0.336418 -0.224524 -0.914556 255 255 255 255
0.007927 0.002057 -0.051097 0.227647 0.044007 -0.972749 255 255 255 255
0.005000 -0.001948 -0.051964 0.227647 0.044007 -0.972749 255 255 255 255
0.005000 0.006632 -0.051575 0.227647 0.044007 -0.972749 255 255 255 255
0.005000 -0.048369 -0.019090 0.248909 -0.927186 -0.279947 255 255 255 255
0.007929 -0.049052 -0.014225 0.248909 -0.927186 -0.279947 255 255 255 255
0.005000 -0.050852 -0.010868 0.248909 -0.927186 -0.279947 255 255 255 255
0.019502 0.018296 0.024906 0.873374 0.201695 0.443324 255 255 255 255
0.007928 0.023658 0.045268 0.873374 0.201695 0.443324 255 255 255 255
0.019502 0.006743 0.030162 0.873374 0.201695 0.443324 255 255 255 255
0.005000 0.010474 0.050934 0.254607 0.272343 0.927903 255 255 255 255
0.007907 0.016135 0.048475 0.254607 0.272343 0.927903 255 255 255 255
0.005000 0.018715 0.048516 0.254607 0.272343 0.927903 255 255 255 255
0.007940 0.051022 -0.002103 0.349583 0.930056 -0.113085 255 255 255 255
0.007924 0.050042 -0.010216 0.349583 0.930056 -0.113085 255 255 255 255
0.005000 0.051625 -0.006232 0.349583 0.930056 -0.113085 255 255 255 255
0.005000 0.048369 0.019090 0.349330 0.875754 0.333203 255 255 255 255
0.007939 0.046103 0.021966 0.349330 0.875754 0.333203 255 255 255 255
0.007929 0.049052 0.014225 0.349330 0.875754 0.333203 255 255 255 255
0.007927 0.050701 0.006153 0.862959 0.495092 0.100926 255 255 255 255
0.007929 0.049052 0.014225 0.862959 0.495092 0.100926 255 255 255 255
0.019508 0.030469 0.006380 0.862959 0.495092 0.100926 255 255 255 255
0.007924 0.036833 0.035387 0.345055 0.726892 0.593771 255 255 255 255
0.007916 0.042032 0.029027 0.345055 0.726892 0.593771 255 255 255 255
0.005000 0.039550 0.033761 0.345055 0.726892 0.593771 255 255 255 255
0.005000 0.044567 0.026791 0.249322 0.785963 0.565774 255 255 255 255
0.005000 0.039550 0.033761 0.249322 0.785963 0.565774 255 255 255 255
0.007916 0.042032 0.029027 0.249322 0.785963 0.565774 255 255 255 255
0.005000 -0.033454 -0.039810 0.251989 -0.559272 -0.789757 255 255 255 255
0.005000 -0.026445 -0.044774 0.251989 -0.559272 -0.789757 255 255 255 255
0.007918 -0.030662 -0.040856 0.251989 -0.559272 -0.789757 255 255 255 255
0.007928 -0.023659 -0.045268 0.342668 -0.501079 -0.794669 255 255 255 255
0.007918 -0.030662 -0.040856 0.342668 -0.501079 -0.794669 255 255 255 255
0.005000 -0.026445 -0.044774 0.342668 -0.501079 -0.794669 255 255 255 255
0.007919 -0.020003 0.047002 0.869328 -0.228911 0.438028 255 255 255 255
0.007932 -0.027323 0.043150 0.869328 -0.228911 0.438028 255 255 255 255
0.019502 -0.018296 0.024906 0.869328 -0.228911 0.438028 255 255 255 255
0.019503 -0.006336 0.030287 0.874161 -0.199319 0.442849 255 255 255 255
0.007919 -0.020003 0.047002 0.874161 -0.199319 0.442849 255 255 255 255
0.019502 -0.018296 0.024906 0.874161 -0.199319 0.442849 255 255 255 255
0.019503 -0.006336 0.030287 0.867270 -0.157501 0.472267 255 255 255 255
0.007921 -0.012177 0.049609 0.867270 -0.157501 0.472267 255 255 255 255
0.007919 -0.020003 0.047002 0.867270 -0.157501 0.472267 255 255 255 255
0.005000 -0.048369 -0.019090 0.349330 -0.875753 -0.333203 255 255 255 255
0.007939 -0.046103 -0.021966 0.349330 -0.875753 -0.333203 255 255 255 255
0.007929 -0.049052 -0.014225 0.349330 -0.875753 -0.333203 255 255 255 255
0.007924 -0.036833 -0.035387 0.866851 -0.330193 -0.373552 255 255 255 255
0.007918 -0.030662 -0.040856 0.866851 -0.330193 -0.373552 255 255 255 255
0.019503 -0.018295 -0.024905 0.866851 -0.330193 -0.373552 255 255 255 255
0.007922 -0.044233 0.025540 0.349517 -0.846711 0.401145 255 255 255 255
0.005000 -0.046804 0.022657 0.349517 -0.846711 0.401145 255 255 255 255
0.007935 -0.047760 0.018084 0.349517 -0.846711 0.401145 255 255 255 255
0.005000 -0.049895 0.014644 0.249068 -0.903589 0.348557 255 255 255 255
0.007935 -0.047760 0.018084 0.249068 -0.903589 0.348557 255 255 255 255
0.005000 -0.046804 0.022657 0.249068 -0.903589 0.348557 255 255 255 255
0.005000 -0.046804 0.022657 0.248159 -0.834096 0.492647 255 255 255 255
0.007922 -0.044233 0.025540 0.248159 -0.834096 0.492647 255 255 255 255
0.005000 -0.042437 0.030052 0.248159 -0.834096 0.492647 255 255 255 255
0.007922 -0.044233 0.025540 0.348824 -0.771041 0.532746 255 255 255 255
0.007932 -0.039539 0.032327 0.348824 -0.771041 0.532746 255 255 255 255
0.005000 -0.042437 0.030052 0.348824 -0.771041 0.532746 255 255 255 255
0.007932 0.039539 -0.032327 0.346875 0.676418 -0.649721 255 255 255 255
0.007917 0.033866 -0.038241 0.346875 0.676418 -0.649721 255 255 255 255
0.005000 0.036912 -0.036627 0.346875 0.676418 -0.649721 255 255 255 255
0.007917 0.033866 -0.038241 0.345311 0.563780 -0.750275 255 255 255 255
0.007932 0.027323 -0.043150 0.345311 0.563780 -0.750275 255 255 255 255
0.005000 0.030380 -0.042203 0.345311 0.563780 -0.750275 255 255 255 255
0.007928 -0.023659 -0.045268 0.873374 -0.201691 -0.443327 255 255 255 255
0.019500 -0.006744 -0.030165 0.873374 -0.201691 -0.443327 255 255 255 255
0.019503 -0.018295 -0.024905 0.873374 -0.201691 -0.443327 255 255 255 255
0.007928 -0.023659 -0.045268 0.870654 -0.190878 -0.453352 255 255 255 255
0.007907 -0.016135 -0.048475 0.870654 -0.190878 -0.453352 255 255 255 255
0.019500 -0.006744 -0.030165 0.870654 -0.190878 -0.453352 255 255 255 255
0.007920 -0.008163 -0.050427 0.865501 -0.120449 -0.486210 255 255 255 255
0.019500 -0.006744 -0.030165 0.865501 -0.120449 -0.486210 255 255 255 255
0.007907 -0.016135 -0.048475 0.865501 -0.120449 -0.486210 255 255 255 255
0.007920 -0.008163 -0.050427 0.868732 -0.032963 -0.494185 255 255 255 255
0.007927 0.002057 -0.051097 0.868732 -0.032963 -0.494185 255 255 255 255
0.019500 -0.006744 -0.030165 0.868732 -0.032963 -0.494185 255 255 255 255
0.019502 0.029492 -0.009241 0.865643 0.481175 -0.138325 255 255 255 255
0.007935 0.047760 -0.018084 0.865643 0.481175 -0.138325 255 255 255 255
0.007924 0.050042 -0.010216 0.865643 0.481175 -0.138325 255 255 255 255
0.005000 0.046804 -0.022657 0.248159 0.834096 -0.492647 255 255 255 255
0.007922 0.044233 -0.025540 0.248159 0.834096 -0.492647 255 255 255 255
0.005000 0.042437 -0.030052 0.248159 0.834096 -0.492647 255 255 255 255
0.007922 0.044233 -0.025540 0.348824 0.771041 -0.532745 255 255 255 255
0.007932 0.039539 -0.032327 0.348824 0.771041 -0.532745 255 255 255 255
0.005000 0.042437 -0.030052 0.348824 0.771041 -0.532745 255 255 255 255
0.019500 0.024877 -0.018074 0.871863 0.433988 -0.226957 255 255 255 255
0.007922 0.044233 -0.025540 0.871863 0.433988 -0.226957 255 255 255 255
0.019502 0.029492 -0.009241 0.871863 0.433988 -0.226957 255 255 255 255
0.007927 0.002057 -0.051097 0.865027 0.073518 -0.496310 255 255 255 255
0.007921 0.012177 -0.049609 0.865027 0.073518 -0.496310 255 255 255 255
0.019503 0.006336 -0.030287 0.865027 0.073518 -0.496310 255 255 255 255
0.005000 -0.001948 -0.051964 0.258112 -0.115789 -0.959151 255 255 255 255
0.007920 -0.008163 -0.050427 0.258112 -0.115789 -0.959151 255 255 255 255
0.005000 -0.010474 -0.050934 0.258112 -0.115789 -0.959151 255 255 255 255
0.007928 0.023658 0.045268 0.342668 0.501079 0.794669 255 255 255 255
0.007918 0.030662 0.040856 0.342668 0.501079 0.794669 255 255 255 255
0.005000 0.026445 0.044774 0.342668 0.501079 0.794669 255 255 255 255
0.005000 0.026445 0.044774 0.251989 0.559272 0.789757 255 255 255 255
0.007918 0.030662 0.040856 0.251989 0.559272 0.789757 255 255 255 255
0.005000 0.033454 0.039810 0.251989 0.559272 0.789757 255 255 255 255
0.007907 0.016135 0.048475 0.338769 0.368154 0.865851 255 255 255 255
0.007928 0.023658 0.045268 0.338769 0.368154 0.865851 255 255 255 255
0.005000 0.018715 0.048516 0.338769 0.368154 0.865851 255 255 255 255
0.007920 0.008163 0.050427 0.336418 0.224524 0.914556 255 255 255 255
0.007907 0.016135 0.048475 0.336418 0.224524 0.914556 255 255 255 255
0.005000 0.010474 0.050934 0.336418 0.224524 0.914556 255 255 255 255
0.007921 -0.012177 0.049609 0.362887 -0.135842 0.921878 255 255 255 255
0.007927 -0.002057 0.051097 0.362887 -0.135842 0.921878 255 255 255 255
0.005000 -0.006632 0.051575 0.362887 -0.135842 0.921878 255 255 255 255
0.019502 0.029492 -0.009241 0.876355 0.480707 -0.030382 255 255 255 255
0.007940 0.051022 -0.002103 0.876355 0.480707 -0.030382 255 255 255 255
0.019508 0.030469 0.006380 0.876355 0.480707 -0.030382 255 255 255 255
0.005000 0.044567 0.026791 0.346193 0.812326 0.469338 255 255 255 255
0.007916 0.042032 0.029027 0.346193 0.812326 0.469338 255 255 255 255
0.007939 0.046103 0.021966 0.346193 0.812326 0.469338 255 255 255 255
0.007927 -0.002057 0.051097 0.865027 -0.073518 0.496310 255 255 255 255
0.007921 -0.012177 0.049609 0.865027 -0.073518 0.496310 255 255 255 255
0.019503 -0.006336 0.030287 0.865027 -0.073518 0.496310 255 255 255 255
0.007932 0.039539 -0.032327 0.870216 0.354418 -0.342215 255 255 255 255
0.019502 0.018296 -0.024906 0.870216 0.354418 -0.342215 255 255 255 255
0.007917 0.033866 -0.038241 0.870216 0.354418 -0.342215 255 255 255 255
0.007927 0.002057 -0.051097 0.359417 -0.061281 -0.931163 255 255 255 255
0.007920 -0.008163 -0.050427 0.359417 -0.061281 -0.931163 255 255 255 255
0.005000 -0.001948 -0.051964 0.359417 -0.061281 -0.931163 255 255 255 255
0.007922 0.044233 -0.025540 0.868794 0.447031 -0.212981 255 255 255 255
0.007935 0.047760 -0.018084 0.868794 0.447031 -0.212981 255 255 255 255
0.019502 0.029492 -0.009241 0.868794 0.447031 -0.212981 255 255 255 255
0.007928 0.023658 0.045268 0.870653 0.190878 0.453352 255 255 255 255
0.007907 0.016135 0.048475 0.870653 0.190878 0.453352 255 255 255 255
0.019502 0.006743 0.030162 0.870653 0.190878 0.453352 255 255 255 255
0.007927 -0.002057 0.051097 0.359417 0.061281 0.931163 255 255 255 255
0.007920 0.008163 0.050427 0.359417 0.061281 0.931163 255 255 255 255
0.005000 0.001948 0.051964 0.359417 0.061281 0.931163 255 255 255 255
0.007940 0.051022 -0.002103 0.867593 0.496845 0.020662 255 255 255 255
0.007927 0.050701 0.006153 0.867593 0.496845 0.020662 255 255 255 255
0.019508 0.030469 0.006380 0.867593 0.496845 0.020662 255 255 255 255
0.007924 0.050042 -0.010216 0.870849 0.487792 -0.060671 255 255 255 255
0.007940 0.051022 -0.002103 0.870849 0.487792 -0.060671 255 255 255 255
0.019502 0.029492 -0.009241 0.870849 0.487792 -0.060671 255 255 255 255
0.007907 0.016135 0.048475 0.865502 0.120449 0.486208 255 255 255 255
0.007920 0.008163 0.050427 0.865502 0.120449 0.486208 255 255 255 255
0.019502 0.006743 0.030162 0.865502 0.120449 0.486208 255 255 255 255
0.005000 -0.006632 0.051575 0.227647 -0.044007 0.972749 255 255 255 255
0.007927 -0.002057 0.051097 0.227647 -0.044007 0.972749 255 255 255 255
0.005000 0.001948 0.051964 0.227647 -0.044007 0.972749 255 255 255 255
0.007920 0.008163 0.050427 0.868732 0.032963 0.494184 255 255 255 255
0.007927 -0.002057 0.051097 0.868732 0.032963 0.494184 255 255 255 255
0.019502 0.006743 0.030162 0.868732 0.032963 0.494184 255 255 255 255
0.005000 0.042437 -0.030052 0.000000 0.765581 -0.643340 255 255 255 255
-0.023000 0.036912 -0.036627 0.000000 0.765581 -0.643340 255 255 255 255
-0.023000 0.042437 -0.030052 0.000000 0.765581 -0.643340 255 255 255 255
0.005000 0.036912 -0.036627 0.000000 0.765581 -0.643340 255 255 255 255
-0.023000 0.052089 -0.002721 -0.013668 0.977195 -0.211905 255 255 255 255
0.005000 0.049895 -0.014644 -0.013668 0.977195 -0.211905 255 255 255 255
-0.023000 0.048613 -0.018752 -0.013668 0.977195 -0.211905 255 255 255 255
0.005000 0.051625 -0.006232 -0.009024 0.979464 -0.201417 255 255 255 255
0.005000 0.049895 -0.014644 -0.009024 0.979464 -0.201417 255 255 255 255
-0.023000 0.052089 -0.002721 -0.009024 0.979464 -0.201417 255 255 255 255
0.005000 0.033454 0.039810 -0.000000 0.577922 0.816092 255 255 255 255
-0.023000 0.033454 0.039810 -0.000000 0.577922 0.816092 255 255 255 255
-0.023000 0.026445 0.044774 -0.000000 0.577922 0.816092 255 255 255 255
0.005000 0.026445 0.044774 0.000000 0.577922 0.816092 255 255 255 255
-0.023000 0.052089 -0.002721 0.011867 0.999228 -0.037454 255 255 255 255
0.005000 0.051947 0.002350 0.011867 0.999228 -0.037454 255 255 255 255
0.005000 0.051625 -0.006232 0.011867 0.999228 -0.037454 255 255 255 255
-0.023000 0.050852 0.010868 -0.011359 0.995813 0.090707 255 255 255 255
0.005000 0.051947 0.002350 -0.011359 0.995813 0.090707 255 255 255 255
-0.023000 0.052089 -0.002721 -0.011359 0.995813 0.090707 255 255 255 255
0.005000 0.051947 0.002350 0.000000 0.991834 0.127534 255 255 255 255
-0.023000 0.050852 0.010868 0.000000 0.991834 0.127534 255 255 255 255
0.005000 0.050852 0.010868 0.000000 0.991834 0.127534 255 255 255 255
-0.023000 -0.018715 -0.048516 -0.010211 -0.465415 -0.885033 255 255 255 255
0.005000 -0.026445 -0.044774 -0.010211 -0.465415 -0.885033 255 255 255 255
-0.023000 -0.030112 -0.042522 -0.010211 -0.465415 -0.885033 255 255 255 255
0.005000 -0.026445 -0.044774 -0.000000 -0.435715 -0.900085 255 255 255 255
-0.023000 -0.018715 -0.048516 -0.000000 -0.435715 -0.900085 255 255 255 255
0.005000 -0.018715 -0.048516 -0.000000 -0.435715 -0.900085 255 255 255 255
0.005000 -0.044567 -0.026791 -0.010211 -0.830550 -0.556850 255 255 255 255
-0.023000 -0.046721 -0.023065 -0.010211 -0.830550 -0.556850 255 255 255 255
-0.023000 -0.039550 -0.033761 -0.010211 -0.830550 -0.556850 255 255 255 255
0.005000 -0.044567 -0.026791 -0.000000 -0.811593 -0.584223 255 255 255 255
-0.023000 -0.039550 -0.033761 -0.000000 -0.811593 -0.584223 255 255 255 255
0.005000 -0.039550 -0.033761 -0.000000 -0.811593 -0.584223 255 255 255 255
-0.023000 -0.050852 -0.010868 -0.010211 -0.995478 -0.094437 255 255 255 255
0.005000 -0.051947 -0.002350 -0.010211 -0.995478 -0.094437 255 255 255 255
-0.023000 -0.052068 0.001952 -0.010211 -0.995478 -0.094437 255 255 255 255
0.005000 -0.050852 -0.010868 0.000000 -0.991834 -0.127534 255 255 255 255
0.005000 -0.051947 -0.002350 0.000000 -0.991834 -0.127534 255 255 255 255
-0.023000 -0.050852 -0.010868 0.000000 -0.991834 -0.127534 255 255 255 255
-0.023000 -0.048936 0.018054 -0.011359 -0.879216 0.476287 255 255 255 255
0.005000 -0.046804 0.022657 -0.011359 -0.879216 0.476287 255 255 255 255
-0.023000 -0.042437 0.030052 -0.011359 -0.879216 0.476287 255 255 255 255
0.005000 -0.042437 0.030052 0.000000 -0.861029 0.508555 255 255 255 255
-0.023000 -0.042437 0.030052 0.000000 -0.861029 0.508555 255 255 255 255
0.005000 -0.046804 0.022657 0.000000 -0.861029 0.508555 255 255 255 255
-0.023000 0.036912 -0.036627 -0.011359 0.620595 -0.784049 255 255 255 255
0.005000 0.030380 -0.042203 -0.011359 0.620595 -0.784049 255 255 255 255
-0.023000 0.026213 -0.045095 -0.011359 0.620595 -0.784049 255 255 255 255
0.005000 0.030380 -0.042203 0.000000 0.649248 -0.760576 255 255 255 255
-0.023000 0.036912 -0.036627 0.000000 0.649248 -0.760576 255 255 255 255
0.005000 0.036912 -0.036627 0.000000 0.649248 -0.760576 255 255 255 255
-0.023000 0.026213 -0.045095 0.011867 0.515171 -0.857005 255 255 255 255
0.005000 0.030380 -0.042203 0.011867 0.515171 -0.857005 255 255 255 255
0.005000 0.023019 -0.046628 0.011867 0.515171 -0.857005 255 255 255 255
0.005000 0.042437 -0.030052 0.000000 0.861029 -0.508555 255 255 255 255
-0.023000 0.042437 -0.030052 0.000000 0.861029 -0.508555 255 255 255 255
0.005000 0.046804 -0.022657 0.000000 0.861029 -0.508555 255 255 255 255
-0.023000 0.048613 -0.018752 -0.010211 0.877437 -0.479583 255 255 255 255
0.005000 0.046804 -0.022657 -0.010211 0.877437 -0.479583 255 255 255 255
-0.023000 0.042437 -0.030052 -0.010211 0.877437 -0.479583 255 255 255 255
0.005000 0.049895 -0.014644 0.010068 0.932944 -0.359880 255 255 255 255
0.005000 0.046804 -0.022657 0.010068 0.932944 -0.359880 255 255 255 255
-0.023000 0.048613 -0.018752 0.010068 0.932944 -0.359880 255 255 255 255
-0.023000 0.026213 -0.045095 -0.015392 0.353342 -0.935368 255 255 255 255
0.005000 0.015030 -0.049780 -0.015392 0.353342 -0.935368 255 255 255 255
-0.023000 0.010150 -0.051163 -0.015392 0.353342 -0.935368 255 255 255 255
-0.023000 0.026213 -0.045095 -0.009024 0.367097 -0.930139 255 255 255 255
0.005000 0.023019 -0.046628 -0.009024 0.367097 -0.930139 255 255 255 255
0.005000 0.015030 -0.049780 -0.009024 0.367097 -0.930139 255 255 255 255
-0.023000 0.010150 -0.051163 0.011867 0.208988 -0.977846 255 255 255 255
0.005000 0.015030 -0.049780 0.011867 0.208988 -0.977846 255 255 255 255
0.005000 0.006632 -0.051575 0.011867 0.208988 -0.977846 255 255 255 255
-0.023000 -0.018715 -0.048516 -0.010211 -0.249510 -0.968318 255 255 255 255
-0.023000 -0.006245 -0.051729 -0.010211 -0.249510 -0.968318 255 255 255 255
0.005000 -0.010474 -0.050934 -0.010211 -0.249510 -0.968318 255 255 255 255
-0.023000 -0.018715 -0.048516 0.000000 -0.281624 -0.959525 255 255 255 255
0.005000 -0.010474 -0.050934 0.000000 -0.281624 -0.959525 255 255 255 255
0.005000 -0.018715 -0.048516 0.000000 -0.281624 -0.959525 255 255 255 255
-0.023000 0.001948 0.051964 -0.010211 0.152828 0.988200 255 255 255 255
0.005000 0.010474 0.050934 -0.010211 0.152828 0.988200 255 255 255 255
-0.023000 0.014674 0.049995 -0.010211 0.152828 0.988200 255 255 255 255
0.005000 0.001948 0.051964 0.000000 0.119850 0.992792 255 255 255 255
0.005000 0.010474 0.050934 0.000000 0.119850 0.992792 255 255 255 255
-0.023000 0.001948 0.051964 0.000000 0.119850 0.992792 255 255 255 255
0.005000 0.001948 0.051964 0.000000 -0.045193 0.998978 255 255 255 255
-0.023000 0.001948 0.051964 0.000000 -0.045193 0.998978 255 255 255 255
-0.023000 -0.006632 0.051575 0.000000 -0.045193 0.998978 255 255 255 255
0.005000 -0.006632 0.051575 0.000000 -0.045193 0.998978 255 255 255 255
0.005000 -0.023019 0.046628 0.010068 -0.367094 0.930130 255 255 255 255
0.005000 -0.015030 0.049780 0.010068 -0.367094 0.930130 255 255 255 255
-0.023000 -0.019128 0.048466 0.010068 -0.367094 0.930130 255 255 255 255
-0.023000 -0.019128 0.048466 -0.010211 -0.241432 0.970364 255 255 255 255
0.005000 -0.015030 0.049780 -0.010211 -0.241432 0.970364 255 255 255 255
-0.023000 -0.006632 0.051575 -0.010211 -0.241432 0.970364 255 255 255 255
-0.023000 -0.006632 0.051575 0.000000 -0.209003 0.977915 255 255 255 255
0.005000 -0.015030 0.049780 0.000000 -0.209003 0.977915 255 255 255 255
0.005000 -0.006632 0.051575 0.000000 -0.209003 0.977915 255 255 255 255
-0.023000 -0.039550 -0.033761 -0.010211 -0.680306 -0.732857 255 255 255 255
-0.023000 -0.030112 -0.042522 -0.010211 -0.680306 -0.732857 255 255 255 255
0.005000 -0.033454 -0.039810 -0.010211 -0.680306 -0.732857 255 255 255 255
-0.023000 -0.039550 -0.033761 0.000000 -0.704364 -0.709839 255 255 255 255
0.005000 -0.033454 -0.039810 0.000000 -0.704364 -0.709839 255 255 255 255
0.005000 -0.039550 -0.033761 0.000000 -0.704364 -0.709839 255 255 255 255
0.005000 -0.026445 -0.044774 0.010068 -0.577892 -0.816051 255 255 255 255
0.005000 -0.033454 -0.039810 0.010068 -0.577892 -0.816051 255 255 255 255
-0.023000 -0.030112 -0.042522 0.010068 -0.577892 -0.816051 255 255 255 255
-0.023000 -0.019128 0.048466 -0.013668 -0.505933 0.862465 255 255 255 255
-0.023000 -0.033278 0.040166 -0.013668 -0.505933 0.862465 255 255 255 255
0.005000 -0.023019 0.046628 -0.013668 -0.505933 0.862465 255 255 255 255
-0.023000 -0.033278 0.040166 -0.009024 -0.515186 0.857031 255 255 255 255
0.005000 -0.030380 0.042203 -0.009024 -0.515186 0.857031 255 255 255 255
0.005000 -0.023019 0.046628 -0.009024 -0.515186 0.857031 255 255 255 255
-0.023000 -0.042437 0.030052 -0.011359 -0.741181 0.671209 255 255 255 255
0.005000 -0.036912 0.036627 -0.011359 -0.741181 0.671209 255 255 255 255
-0.023000 -0.033278 0.040166 -0.011359 -0.741181 0.671209 255 255 255 255
0.005000 -0.042437 0.030052 0.000000 -0.765581 0.643340 255 255 255 255
0.005000 -0.036912 0.036627 0.000000 -0.765581 0.643340 255 255 255 255
-0.023000 -0.042437 0.030052 0.000000 -0.765581 0.643340 255 255 255 255
-0.023000 -0.033278 0.040166 0.011867 -0.649203 0.760523 255 255 255 255
0.005000 -0.036912 0.036627 0.011867 -0.649203 0.760523 255 255 255 255
0.005000 -0.030380 0.042203 0.011867 -0.649203 0.760523 255 255 255 255
-0.023000 -0.050852 -0.010868 -0.010211 -0.947113 -0.320739 255 255 255 255
-0.023000 -0.046721 -0.023065 -0.010211 -0.947113 -0.320739 255 255 255 255
0.005000 -0.048369 -0.019090 -0.010211 -0.947113 -0.320739 255 255 255 255
-0.023000 -0.050852 -0.010868 0.000000 -0.957316 -0.289044 255 255 255 255
0.005000 -0.048369 -0.019090 0.000000 -0.957316 -0.289044 255 255 255 255
0.005000 -0.050852 -0.010868 0.000000 -0.957316 -0.289044 255 255 255 255
0.005000 -0.044567 -0.026791 0.010068 -0.896638 -0.442649 255 255 255 255
0.005000 -0.048369 -0.019090 0.010068 -0.896638 -0.442649 255 255 255 255
-0.023000 -0.046721 -0.023065 0.010068 -0.896638 -0.442649 255 255 255 255
-0.023000 0.010150 -0.051163 -0.013668 0.034467 -0.999312 255 255 255 255
0.005000 -0.001948 -0.051964 -0.013668 0.034467 -0.999312 255 255 255 255
-0.023000 -0.006245 -0.051729 -0.013668 0.034467 -0.999312 255 255 255 255
-0.023000 0.010150 -0.051163 -0.009024 0.045191 -0.998938 255 255 255 255
0.005000 0.006632 -0.051575 -0.009024 0.045191 -0.998938 255 255 255 255
0.005000 -0.001948 -0.051964 -0.009024 0.045191 -0.998938 255 255 255 255
0.005000 -0.010474 -0.050934 0.010068 -0.119844 -0.992742 255 255 255 255
-0.023000 -0.006245 -0.051729 0.010068 -0.119844 -0.992742 255 255 255 255
0.005000 -0.001948 -0.051964 0.010068 -0.119844 -0.992742 255 255 255 255
-0.023000 0.014674 0.049995 -0.010211 0.405487 0.914044 255 255 255 255
0.005000 0.018715 0.048516 -0.010211 0.405487 0.914044 255 255 255 255
-0.023000 0.026445 0.044774 -0.010211 0.405487 0.914044 255 255 255 255
-0.023000 0.026445 0.044774 0.000000 0.435715 0.900085 255 255 255 255
0.005000 0.018715 0.048516 0.000000 0.435715 0.900085 255 255 255 255
0.005000 0.026445 0.044774 0.000000 0.435715 0.900085 255 255 255 255
0.005000 0.010474 0.050934 0.010068 0.281609 0.959476 255 255 255 255
0.005000 0.018715 0.048516 0.010068 0.281609 0.959476 255 255 255 255
-0.023000 0.014674 0.049995 0.010068 0.281609 0.959476 255 255 255 255
0.005000 0.033454 0.039810 0.000000 0.704364 0.709839 255 255 255 255
0.005000 0.039550 0.033761 0.000000 0.704364 0.709839 255 255 255 255
-0.023000 0.033454 0.039810 0.000000 0.704364 0.709839 255 255 255 255
-0.023000 0.033454 0.039810 -0.010211 0.727568 0.685960 255 255 255 255
0.005000 0.039550 0.033761 -0.010211 0.727568 0.685960 255 255 255 255
-0.023000 0.042287 0.030441 -0.010211 0.727568 0.685960 255 255 255 255
-0.023000 0.048369 0.019090 0.000000 0.957316 0.289044 255 255 255 255
0.005000 0.048369 0.019090 0.000000 0.957316 0.289044 255 255 255 255
-0.023000 0.050852 0.010868 0.000000 0.957316 0.289044 255 255 255 255
0.005000 0.050852 0.010868 0.000000 0.957316 0.289044 255 255 255 255
-0.023000 0.052089 -0.002721 -1.000000 0.000000 0.000000 255 255 255 255
-0.023000 0.048613 -0.018752 -1.000000 0.000000 0.000000 255 255 255 255
-0.023000 -0.048936 0.018054 -1.000000 0.000000 0.000000 255 255 255 255
-0.023000 -0.018715 -0.048516 -1.000000 -0.000000 -0.000000 255 255 255 255
-0.023000 -0.006245 -0.051729 -1.000000 -0.000000 -0.000000 255 255 255 255
-0.023000 0.050852 0.010868 -1.000000 0.000000 -0.000000 255 255 255 255
-0.023000 0.048369 0.019090 -1.000000 0.000000 -0.000000 255 255 255 255
-0.023000 0.036912 -0.036627 -1.000000 0.000000 0.000000 255 255 255 255
-0.023000 0.026213 -0.045095 -1.000000 0.000000 0.000000 255 255 255 255
-0.023000 0.026445 0.044774 -1.000000 0.000000 -0.000000 255 255 255 255
-0.023000 0.014674 0.049995 -1.000000 0.000000 -0.000000 255 255 255 255
-0.023000 0.010150 -0.051163 -1.000000 -0.000000 -0.000000 255 255 255 255
-0.023000 -0.033278 0.040166 -1.000000 -0.000000 0.000000 255 255 255 255
-0.023000 -0.019128 0.048466 -1.000000 -0.000000 0.000000 255 255 255 255
-0.023000 -0.042437 0.030052 -1.000000 -0.000000 0.000000 255 255 255 255
-0.023000 -0.039550 -0.033761 -1.000000 -0.000000 -0.000000 255 255 255 255
-0.023000 -0.030112 -0.042522 -1.000000 -0.000000 -0.000000 255 255 255 255
-0.023000 -0.050852 -0.010868 -1.000000 -0.000000 0.000000 255 255 255 255
-0.023000 -0.046721 -0.023065 -1.000000 -0.000000 0.000000 255 255 255 255
-0.023000 -0.006632 0.051575 -1.000000 0.000000 -0.000000 255 255 255 255
-0.023000 0.042437 -0.030052 -1.000000 -0.000000 -0.000000 255 255 255 255
-0.023000 0.033454 0.039810 -1.000000 0.000000 0.000000 255 255 255 255
-0.023000 0.042287 0.030441 -1.000000 0.000000 -0.000000 255 255 255 255
-0.023000 0.001948 0.051964 -1.000000 0.000000 -0.000000 255 255 255 255
-0.023000 -0.052068 0.001952 -1.000000 0.000000 -0.000000 255 255 255 255
0.005000 -0.046804 0.022657 0.011867 -0.932926 0.359873 255 255 255 255
-0.023000 -0.048936 0.018054 0.011867 -0.932926 0.359873 255 255 255 255
0.005000 -0.049895 0.014644 0.011867 -0.932926 0.359873 255 255 255 255
0.005000 -0.051947 -0.002350 0.010068 -0.999248 0.037455 255 255 255 255
0.005000 -0.051625 0.006232 0.010068 -0.999248 0.037455 255 255 255 255
-0.023000 -0.052068 0.001952 0.010068 -0.999248 0.037455 255 255 255 255
0.005000 -0.051625 0.006232 -0.013668 -0.981517 0.190884 255 255 255 255
-0.023000 -0.048936 0.018054 -0.013668 -0.981517 0.190884 255 255 255 255
-0.023000 -0.052068 0.001952 -0.013668 -0.981517 0.190884 255 255 255 255
-0.023000 -0.048936 0.018054 -0.009024 -0.979464 0.201417 255 255 255 255
0.005000 -0.051625 0.006232 -0.009024 -0.979464 0.201417 255 255 255 255
0.005000 -0.049895 0.014644 -0.009024 -0.979464 0.201417 255 255 255 255
0.005000 0.039550 0.033761 0.010068 0.811552 0.584194 255 255 255 255
0.005000 0.044567 0.026791 0.010068 0.811552 0.584194 255 255 255 255
-0.023000 0.042287 0.030441 0.010068 0.811552 0.584194 255 255 255 255
-0.023000 0.042287 0.030441 -0.010211 0.881403 0.472255 255 255 255 255
0.005000 0.044567 0.026791 -0.010211 0.881403 0.472255 255 255 255 255
-0.023000 0.048369 0.019090 -0.010211 0.881403 0.472255 255 255 255 255
0.005000 0.048369 0.019090 -0.000000 0.896684 0.442672 255 255 255 255
-0.023000 0.048369 0.019090 -0.000000 0.896684 0.442672 255 255 255 255
0.005000 0.044567 0.026791 -0.000000 0.896684 0.442672 255 255 255 255
0.019503 -0.018295 -0.024905 0.999999 0.000729 0.001117 255 255 255 255
0.019500 -0.006744 -0.030165 0.999999 0.000729 0.001117 255 255 255 255
0.019500 -0.024877 -0.018074 0.999999 0.000729 0.001117 255 255 255 255
0.019502 -0.029492 -0.009241 1.000000 -0.000270 -0.000382 255 255 255 255
0.019500 -0.024877 -0.018074 1.000000 -0.000270 -0.000382 255 255 255 255
0.019500 -0.006744 -0.030165 1.000000 -0.000270 -0.000382 255 255 255 255
0.019502 0.006743 0.030162 1.000000 -0.000013 -0.000027 255 255 255 255
0.019500 -0.006744 -0.030165 1.000000 -0.000013 -0.000027 255 255 255 255
0.019502 0.018296 0.024906 1.000000 -0.000013 -0.000027 255 255 255 255
0.019500 0.024877 -0.018074 1.000000 0.000126 -0.000306 255 255 255 255
0.019502 0.029492 -0.009241 1.000000 0.000126 -0.000306 255 255 255 255
0.019500 -0.006744 -0.030165 1.000000 0.000126 -0.000306 255 255 255 255
0.019502 -0.029492 -0.009241 1.000000 -0.000268 -0.000378 255 255 255 255
0.019500 -0.006744 -0.030165 1.000000 -0.000268 -0.000378 255 255 255 255
0.019508 -0.030469 0.006380 1.000000 -0.000268 -0.000378 255 255 255 255
0.019502 -0.018296 0.024906 1.000000 -0.000032 -0.000040 255 255 255 255
0.019500 -0.006744 -0.030165 1.000000 -0.000032 -0.000040 255 255 255 255
0.019503 -0.006336 0.030287 1.000000 -0.000032 -0.000040 255 255 255 255
0.019500 0.024877 -0.018074 1.000000 -0.000174 0.000478 255 255 255 255
0.019500 -0.006744 -0.030165 1.000000 -0.000174 0.000478 255 255 255 255
0.019502 0.018296 -0.024906 1.000000 -0.000174 0.000478 255 255 255 255
0.019502 0.029492 -0.009241 1.000000 0.000164 -0.000372 255 255 255 255
0.019508 0.030469 0.006380 1.000000 0.000164 -0.000372 255 255 255 255
0.019500 -0.006744 -0.030165 1.000000 0.000164 -0.000372 255 255 255 255
0.019500 -0.024877 0.018074 1.000000 0.000771 0.000296 255 255 255 255
0.019508 -0.030469 0.006380 1.000000 0.000771 0.000296 255 255 255 255
0.019500 -0.006744 -0.030165 1.000000 0.000771 0.000296 255 255 255 255
0.019502 0.018296 0.024906 1.000000 0.000196 -0.000122 255 255 255 255
0.019500 -0.006744 -0.030165 1.000000 0.000196 -0.000122 255 255 255 255
0.019500 0.024877 0.018074 1.000000 0.000196 -0.000122 255 255 255 255
0.019508 0.030469 0.006380 1.000000 -0.000581 0.000387 255 255 255 255
0.019500 0.024877 0.018074 1.000000 -0.000581 0.000387 255 255 255 255
0.019500 -0.006744 -0.030165 1.000000 -0.000581 0.000387 255 255 255 255
0.019500 -0.024877 0.018074 1.000000 -0.000237 -0.000083 255 255 255 255
0.019500 -0.006744 -0.030165 1.000000 -0.000237 -0.000083 255 255 255 255
0.019502 -0.018296 0.024906 1.000000 -0.000237 -0.000083 255 255 255 255
0.019503 -0.006336 0.030287 1.000000 0.000045 -0.000040 255 255 255 255
0.019500 -0.006744 -0.030165 1.000000 0.000045 -0.000040 255 255 255 255
0.019502 0.006743 0.030162 1.000000 0.000045 -0.000040 255 255 255 255
0.019503 0.006336 -0.030287 1.000000 -0.000181 0.000512 255 255 255 255
0.019502 0.018296 -0.024906 1.000000 -0.000181 0.000512 255 255 255 255
0.019500 -0.006744 -0.030165 1.000000 -0.000181 0.000512 255 255 255 255
0.019500 -0.006744 -0.030165 0.874291 -0.004707 -0.485378 255 255 255 255
0.007927 0.002057 -0.051097 0.874291 -0.004707 -0.485378 255 255 255 255
0.019503 0.006336 -0.030287 0.874291 -0.004707 -0.485378 255 255 255 255
0.019502 0.006743 0.030162 0.874291 0.004703 0.485379 255 255 255 255
0.007927 -0.002057 0.051097 0.874291 0.004703 0.485379 255 255 255 255
0.019503 -0.006336 0.030287 0.874291 0.004703 0.485379 255 255 255 255
3 0 1 2
3 3 4 5
3 6 7 8
3 9 10 11
3 12 13 14
3 15 16 17
3 18 19 20
3 21 22 23
3 24 25 26
3 27 28 29
3 30 31 32
3 33 34 35
3 36 37 38
3 39 40 41
3 42 43 44
3 45 46 47
3 48 49 50
3 51 52 53
3 54 55 56
3 57 58 59
3 60 61 62
3 63 64 65
3 66 67 68
3 69 70 71
3 72 73 74
3 75 76 77
3 78 79 80
3 81 82 83
3 84 85 86
3 87 88 89
3 90 91 92
3 93 94 95
3 96 97 98
3 99 100 101
3 102 103 104
3 105 106 107
3 108 109 110
3 111 112 113
3 114 115 116
3 117 118 119
3 120 121 122
3 123 124 125
3 126 127 128
3 129 130 131
3 132 133 134
3 135 136 137
3 138 139 140
3 141 142 143
3 144 145 146
3 147 148 149
3 150 151 152
3 153 154 155
3 156 157 158
3 159 160 161
3 162 163 164
3 165 166 167
3 168 169 170
3 171 172 173
3 174 175 176
3 177 178 179
3 180 181 182
3 183 184 185
3 186 187 188
3 189 190 191
3 192 193 194
3 195 196 197
3 198 199 200
3 201 202 203
3 204 205 206
3 207 208 209
3 210 211 212
3 213 214 215
3 216 217 218
3 219 220 221
3 222 223 224
3 225 226 227
3 228 229 230
3 231 232 233
3 234 235 236
3 237 238 239
3 240 241 242
3 243 244 245
3 246 247 248
3 249 250 251
3 252 253 254
3 255 256 257
3 258 259 260
3 261 262 263
3 264 265 266
3 267 268 269
3 270 271 272
3 273 274 275
3 276 277 278
3 279 280 281
3 282 283 284
3 285 286 287
3 288 289 290
3 291 292 293
3 294 295 296
3 297 298 299
3 300 301 302
3 303 304 305
3 306 307 308
3 309 310 311
3 312 313 314
3 315 316 317
3 318 319 320
3 321 322 323
3 324 325 326
3 327 328 329
3 330 331 332
3 333 334 335
3 336 337 338
3 339 340 341
3 342 343 344
3 345 346 347
3 348 349 350
3 351 352 353
3 354 355 356
3 357 358 359
3 360 361 362
3 363 364 365
3 366 367 368
3 369 370 371
3 372 373 374
3 375 376 377
3 378 379 380
3 381 382 383
3 384 385 386
3 387 385 384
3 388 389 390
3 391 392 393
3 394 395 396
3 394 396 397
3 398 399 400
3 401 402 403
3 404 405 406
3 407 408 409
3 410 411 412
3 413 414 415
3 416 417 418
3 419 420 421
3 422 423 424
3 425 426 427
3 428 429 430
3 431 432 433
3 434 435 436
3 437 438 439
3 440 441 442
3 443 444 445
3 446 447 448
3 449 450 451
3 452 453 454
3 455 456 457
3 458 459 460
3 461 462 463
3 464 465 466
3 467 468 469
3 470 471 472
3 472 473 470
3 474 475 476
3 477 478 479
3 480 481 482
3 483 484 485
3 486 487 488
3 489 490 491
3 492 493 494
3 495 496 497
3 498 499 500
3 501 502 503
3 504 505 506
3 507 508 509
3 510 511 512
3 513 514 515
3 516 517 518
3 519 520 521
3 522 523 524
3 525 526 527
3 528 529 530
3 531 532 533
3 534 535 536
3 537 538 539
3 540 541 542
3 542 541 543
3 544 545 546
3 547 546 548
3 549 546 550
3 551 552 546
3 553 546 554
3 548 546 555
3 556 557 546
3 558 556 546
3 559 546 560
3 561 546 562
3 563 546 557
3 551 546 564
3 545 564 546
3 547 560 546
3 553 565 546
3 566 546 565
3 554 546 567
3 549 544 546
3 546 559 562
3 561 568 546
3 555 546 552
3 563 567 546
3 566 550 546
3 569 570 571
3 572 573 574
3 575 576 577
3 578 579 580
3 581 582 583
3 584 585 586
3 587 588 589
3 590 591 592
3 593 594 595
3 596 597 598
3 599 600 601
3 602 603 604
3 605 606 607
3 608 609 610
3 611 612 613
3 614 615 616
3 617 618 619
3 620 621 622
3 623 624 625
3 626 627 628
3 629 630 631
3 632 633 634
3 635 636 637
